<svg width="1455" height="1455" viewBox="0 0 1455 1455" fill="none" xmlns="http://www.w3.org/2000/svg">
<path d="M614.329 1025.53C620.014 1025.53 624.622 1019.14 624.622 1011.26C624.622 1003.38 620.014 996.998 614.329 996.998C608.644 996.998 604.035 1003.38 604.035 1011.26C604.035 1019.14 608.644 1025.53 614.329 1025.53Z" fill="#B13838"/>
<path d="M616.903 1083.44C624.362 1083.44 630.409 1075.06 630.409 1064.73C630.409 1054.39 624.362 1046.01 616.903 1046.01C609.445 1046.01 603.398 1054.39 603.398 1064.73C603.398 1075.06 609.445 1083.44 616.903 1083.44Z" fill="#B13838"/>
<path d="M712.95 1140.35C704.064 1145.81 625.576 1191.01 566.695 1125.19C526.312 1080.05 498.353 971.311 542.652 914.603C565.706 885.094 594.563 880.177 616.531 893.974C624.418 898.926 633.702 909.749 630.414 927.898C629.037 935.472 622.552 935.719 620.324 939.569C616.898 945.511 615.144 951.848 618.045 958.983C625.764 977.994 643.843 955.804 643.843 955.804C643.843 955.804 648.625 965.101 646.713 978.39C644.796 991.678 636.624 1004.92 649.196 1020.77C658.567 1032.57 677.073 1026.47 683.151 1008.95C691.14 985.899 690.849 945.744 679.796 904.43C666.209 842.338 619.967 753.422 500.224 759.568C223.845 773.747 212.95 1241.72 212.95 1241.72L437.071 1241.32C420.277 1204.53 406.344 1161.11 402.744 1118.6C392.966 1003.22 423.428 966.719 423.428 966.719C423.428 966.719 430.413 951.911 435.618 955.006C439.625 957.379 433.334 971.636 433.334 971.636C433.334 971.636 413.277 1009.28 423.612 1102.35C428.955 1150.48 467.426 1209.78 493.764 1241.55L558.354 1241.82C551.395 1235.77 544.885 1228.04 539.246 1221.76C501.876 1180.16 486.351 1137.61 486.351 1137.61C486.351 1137.61 481.946 1127.21 486.499 1122.39C490.787 1117.84 498.358 1128.53 498.358 1128.53C498.358 1128.53 520.719 1170 567.965 1203.02C621.691 1240.57 696.136 1241.43 712.95 1241.11V1140.35Z" fill="#B13838"/>
<path d="M840.571 1025.53C834.887 1025.53 830.278 1019.14 830.278 1011.26C830.278 1003.38 834.887 996.998 840.571 996.998C846.256 996.998 850.865 1003.38 850.865 1011.26C850.865 1019.14 846.256 1025.53 840.571 1025.53Z" fill="#B13838"/>
<path d="M837.997 1083.44C830.538 1083.44 824.491 1075.06 824.491 1064.73C824.491 1054.39 830.538 1046.01 837.997 1046.01C845.456 1046.01 851.502 1054.39 851.502 1064.73C851.502 1075.06 845.456 1083.44 837.997 1083.44Z" fill="#B13838"/>
<path d="M741.95 1140.35C750.836 1145.81 829.325 1191.01 888.205 1125.19C928.588 1080.05 956.548 971.311 912.248 914.603C889.194 885.094 860.338 880.177 838.369 893.974C830.482 898.926 821.198 909.749 824.486 927.898C825.863 935.472 832.348 935.719 834.576 939.569C838.002 945.511 839.756 951.848 836.855 958.983C829.136 977.994 811.057 955.804 811.057 955.804C811.057 955.804 806.275 965.101 808.187 978.39C810.104 991.678 818.277 1004.92 805.704 1020.77C796.334 1032.57 777.827 1026.47 771.75 1008.95C763.761 985.899 764.051 945.744 775.104 904.43C788.691 842.338 834.933 753.422 954.676 759.568C1231.06 773.747 1241.95 1241.72 1241.95 1241.72L1017.83 1241.32C1034.62 1204.53 1048.56 1161.11 1052.16 1118.6C1061.93 1003.22 1031.47 966.719 1031.47 966.719C1031.47 966.719 1024.49 951.911 1019.28 955.006C1015.27 957.379 1021.57 971.636 1021.57 971.636C1021.57 971.636 1041.62 1009.28 1031.29 1102.35C1025.95 1150.48 987.474 1209.78 961.136 1241.55L896.546 1241.82C903.505 1235.77 910.015 1228.04 915.654 1221.76C953.025 1180.16 968.549 1137.61 968.549 1137.61C968.549 1137.61 972.954 1127.21 968.401 1122.39C964.113 1117.84 956.542 1128.53 956.542 1128.53C956.542 1128.53 934.181 1170 886.935 1203.02C833.21 1240.57 758.764 1241.43 741.95 1241.11V1140.35Z" fill="#B13838"/>
<path d="M614.329 426.521C620.014 426.521 624.622 432.822 624.622 440.596C624.622 448.37 620.014 454.671 614.329 454.671C608.644 454.671 604.035 448.37 604.035 440.596C604.035 432.822 608.644 426.521 614.329 426.521Z" fill="#B13838"/>
<path d="M616.903 369.369C624.362 369.369 630.409 377.637 630.409 387.836C630.409 398.035 624.362 406.303 616.903 406.303C609.445 406.303 603.398 398.035 603.398 387.836C603.398 377.637 609.445 369.369 616.903 369.369Z" fill="#B13838"/>
<path d="M712.95 313.207C704.064 307.825 625.576 263.221 566.695 328.167C526.312 372.715 498.353 480.02 542.652 535.979C565.706 565.099 594.563 569.951 616.531 556.336C624.418 551.449 633.702 540.769 630.414 522.859C629.037 515.386 622.552 515.142 620.324 511.342C616.898 505.479 615.144 499.226 618.045 492.185C625.764 473.425 643.843 495.322 643.843 495.322C643.843 495.322 648.625 486.148 646.713 473.034C644.796 459.921 636.624 446.849 649.196 431.212C658.567 419.57 677.073 425.587 683.151 442.876C691.14 465.624 690.849 505.249 679.796 546.018C666.209 607.29 619.967 695.033 500.224 688.968C223.845 674.976 212.95 213.18 212.95 213.18L437.071 213.571C420.277 249.878 406.344 292.725 402.744 334.679C392.966 448.53 423.428 484.551 423.428 484.551C423.428 484.551 430.413 499.163 435.618 496.11C439.625 493.767 433.334 479.699 433.334 479.699C433.334 479.699 413.277 442.548 423.612 350.706C428.955 303.217 467.426 244.698 493.764 213.348L558.354 213.076C551.395 219.05 544.885 226.677 539.246 232.875C501.876 273.93 486.351 315.919 486.351 315.919C486.351 315.919 481.946 326.181 486.499 330.935C490.787 335.425 498.358 324.877 498.358 324.877C498.358 324.877 520.719 283.955 567.965 251.37C621.691 214.317 696.136 213.466 712.95 213.78V313.207Z" fill="#B13838"/>
<path d="M840.571 426.521C834.887 426.521 830.278 432.822 830.278 440.596C830.278 448.37 834.887 454.671 840.571 454.671C846.256 454.671 850.865 448.37 850.865 440.596C850.865 432.822 846.256 426.521 840.571 426.521Z" fill="#B13838"/>
<path d="M837.997 369.369C830.538 369.369 824.491 377.637 824.491 387.836C824.491 398.035 830.538 406.303 837.997 406.303C845.456 406.303 851.502 398.035 851.502 387.836C851.502 377.637 845.456 369.369 837.997 369.369Z" fill="#B13838"/>
<path d="M741.95 313.207C750.836 307.825 829.325 263.221 888.205 328.167C928.588 372.715 956.548 480.02 912.248 535.979C889.194 565.099 860.338 569.951 838.369 556.336C830.482 551.449 821.198 540.769 824.486 522.859C825.863 515.386 832.348 515.142 834.576 511.342C838.002 505.479 839.756 499.226 836.855 492.185C829.136 473.425 811.057 495.322 811.057 495.322C811.057 495.322 806.275 486.148 808.187 473.034C810.104 459.921 818.277 446.849 805.704 431.212C796.334 419.57 777.827 425.587 771.75 442.876C763.761 465.624 764.051 505.249 775.104 546.018C788.691 607.29 834.933 695.033 954.676 688.968C1231.06 674.976 1241.95 213.18 1241.95 213.18L1017.83 213.571C1034.62 249.878 1048.56 292.725 1052.16 334.679C1061.93 448.53 1031.47 484.551 1031.47 484.551C1031.47 484.551 1024.49 499.163 1019.28 496.11C1015.27 493.767 1021.57 479.699 1021.57 479.699C1021.57 479.699 1041.62 442.548 1031.29 350.706C1025.95 303.217 987.474 244.698 961.136 213.348L896.546 213.076C903.505 219.05 910.015 226.677 915.654 232.875C953.025 273.93 968.549 315.919 968.549 315.919C968.549 315.919 972.954 326.181 968.401 330.935C964.113 335.425 956.542 324.877 956.542 324.877C956.542 324.877 934.181 283.955 886.935 251.37C833.21 214.317 758.764 213.466 741.95 213.78V313.207Z" fill="#B13838"/>
<path d="M1025.53 840.571C1025.53 834.887 1019.14 830.278 1011.26 830.278C1003.38 830.278 996.998 834.887 996.998 840.571C996.998 846.256 1003.38 850.865 1011.26 850.865C1019.14 850.865 1025.53 846.256 1025.53 840.571Z" fill="#B13838" fill-opacity="0.22"/>
<path d="M1083.44 837.997C1083.44 830.538 1075.06 824.491 1064.73 824.491C1054.39 824.491 1046.01 830.538 1046.01 837.997C1046.01 845.456 1054.39 851.502 1064.73 851.502C1075.06 851.502 1083.44 845.456 1083.44 837.997Z" fill="#B13838" fill-opacity="0.22"/>
<path d="M1140.35 741.95C1145.81 750.836 1191.01 829.325 1125.19 888.205C1080.05 928.588 971.311 956.548 914.603 912.248C885.094 889.194 880.177 860.338 893.974 838.369C898.926 830.482 909.749 821.198 927.898 824.486C935.472 825.863 935.719 832.348 939.569 834.576C945.511 838.002 951.848 839.756 958.983 836.855C977.994 829.136 955.804 811.057 955.804 811.057C955.804 811.057 965.101 806.275 978.39 808.187C991.678 810.104 1004.92 818.277 1020.77 805.704C1032.57 796.334 1026.47 777.827 1008.95 771.75C985.899 763.761 945.744 764.051 904.43 775.104C842.338 788.691 753.422 834.933 759.568 954.676C773.747 1231.05 1241.72 1241.95 1241.72 1241.95L1241.32 1017.83C1204.53 1034.62 1161.11 1048.56 1118.6 1052.16C1003.22 1061.93 966.719 1031.47 966.719 1031.47C966.719 1031.47 951.911 1024.49 955.006 1019.28C957.379 1015.27 971.636 1021.57 971.636 1021.57C971.636 1021.57 1009.28 1041.62 1102.35 1031.29C1150.48 1025.95 1209.78 987.474 1241.55 961.136L1241.82 896.546C1235.77 903.505 1228.04 910.015 1221.76 915.654C1180.16 953.025 1137.61 968.549 1137.61 968.549C1137.61 968.549 1127.21 972.954 1122.39 968.401C1117.84 964.113 1128.53 956.542 1128.53 956.542C1128.53 956.542 1170 934.181 1203.02 886.935C1240.57 833.21 1241.43 758.764 1241.11 741.95H1140.35Z" fill="#B13838" fill-opacity="0.22"/>
<path d="M1025.53 614.329C1025.53 620.014 1019.14 624.622 1011.26 624.622C1003.38 624.622 996.998 620.014 996.998 614.329C996.998 608.644 1003.38 604.035 1011.26 604.035C1019.14 604.035 1025.53 608.644 1025.53 614.329Z" fill="#B13838" fill-opacity="0.22"/>
<path d="M1083.44 616.903C1083.44 624.362 1075.06 630.409 1064.73 630.409C1054.39 630.409 1046.01 624.362 1046.01 616.903C1046.01 609.445 1054.39 603.398 1064.73 603.398C1075.06 603.398 1083.44 609.445 1083.44 616.903Z" fill="#B13838" fill-opacity="0.22"/>
<path d="M1140.35 712.95C1145.81 704.064 1191.01 625.576 1125.19 566.695C1080.05 526.312 971.311 498.353 914.603 542.652C885.094 565.706 880.177 594.563 893.974 616.531C898.926 624.418 909.749 633.702 927.898 630.414C935.472 629.037 935.719 622.552 939.569 620.324C945.511 616.898 951.848 615.144 958.983 618.045C977.994 625.764 955.804 643.843 955.804 643.843C955.804 643.843 965.101 648.625 978.39 646.713C991.678 644.796 1004.92 636.624 1020.77 649.196C1032.57 658.567 1026.47 677.073 1008.95 683.151C985.899 691.14 945.744 690.849 904.43 679.796C842.338 666.209 753.422 619.967 759.568 500.224C773.747 223.845 1241.72 212.95 1241.72 212.95L1241.32 437.071C1204.53 420.277 1161.11 406.344 1118.6 402.744C1003.22 392.966 966.719 423.428 966.719 423.428C966.719 423.428 951.911 430.413 955.006 435.618C957.379 439.625 971.636 433.334 971.636 433.334C971.636 433.334 1009.28 413.277 1102.35 423.612C1150.48 428.955 1209.78 467.426 1241.55 493.764L1241.82 558.354C1235.77 551.395 1228.04 544.885 1221.76 539.246C1180.16 501.876 1137.61 486.351 1137.61 486.351C1137.61 486.351 1127.21 481.946 1122.39 486.499C1117.84 490.787 1128.53 498.358 1128.53 498.358C1128.53 498.358 1170 520.719 1203.02 567.965C1240.57 621.691 1241.43 696.136 1241.11 712.95H1140.35Z" fill="#B13838" fill-opacity="0.22"/>
<path d="M426.521 840.571C426.521 834.887 432.822 830.278 440.596 830.278C448.37 830.278 454.671 834.887 454.671 840.571C454.671 846.256 448.37 850.865 440.596 850.865C432.822 850.865 426.521 846.256 426.521 840.571Z" fill="#B13838" fill-opacity="0.22"/>
<path d="M369.369 837.997C369.369 830.538 377.637 824.491 387.836 824.491C398.035 824.491 406.303 830.538 406.303 837.997C406.303 845.456 398.035 851.502 387.836 851.502C377.637 851.502 369.369 845.456 369.369 837.997Z" fill="#B13838" fill-opacity="0.22"/>
<path d="M313.207 741.95C307.825 750.836 263.221 829.325 328.167 888.205C372.715 928.588 480.02 956.548 535.979 912.248C565.099 889.194 569.951 860.338 556.336 838.369C551.449 830.482 540.769 821.198 522.859 824.486C515.386 825.863 515.142 832.348 511.342 834.576C505.479 838.002 499.226 839.756 492.185 836.855C473.425 829.136 495.322 811.057 495.322 811.057C495.322 811.057 486.147 806.275 473.034 808.187C459.921 810.104 446.849 818.277 431.212 805.704C419.57 796.334 425.586 777.827 442.876 771.75C465.624 763.761 505.249 764.051 546.018 775.104C607.29 788.691 695.033 834.933 688.968 954.676C674.976 1231.05 213.18 1241.95 213.18 1241.95L213.571 1017.83C249.878 1034.62 292.725 1048.56 334.679 1052.16C448.53 1061.93 484.551 1031.47 484.551 1031.47C484.551 1031.47 499.163 1024.49 496.11 1019.28C493.767 1015.27 479.699 1021.57 479.699 1021.57C479.699 1021.57 442.548 1041.62 350.706 1031.29C303.217 1025.95 244.698 987.474 213.348 961.136L213.076 896.546C219.05 903.505 226.677 910.015 232.875 915.654C273.93 953.025 315.919 968.549 315.919 968.549C315.919 968.549 326.181 972.954 330.935 968.401C335.425 964.113 324.877 956.542 324.877 956.542C324.877 956.542 283.954 934.181 251.37 886.935C214.317 833.21 213.466 758.764 213.78 741.95H313.207Z" fill="#B13838" fill-opacity="0.22"/>
<path d="M426.521 614.329C426.521 620.014 432.822 624.622 440.596 624.622C448.37 624.622 454.671 620.014 454.671 614.329C454.671 608.644 448.37 604.035 440.596 604.035C432.822 604.035 426.521 608.644 426.521 614.329Z" fill="#B13838" fill-opacity="0.22"/>
<path d="M369.369 616.903C369.369 624.362 377.637 630.409 387.836 630.409C398.035 630.409 406.303 624.362 406.303 616.903C406.303 609.445 398.035 603.398 387.836 603.398C377.637 603.398 369.369 609.445 369.369 616.903Z" fill="#B13838" fill-opacity="0.22"/>
<path d="M313.207 712.95C307.825 704.064 263.221 625.576 328.167 566.695C372.715 526.312 480.02 498.353 535.979 542.652C565.099 565.706 569.951 594.563 556.336 616.531C551.449 624.418 540.769 633.702 522.859 630.414C515.386 629.037 515.142 622.552 511.342 620.324C505.479 616.898 499.226 615.144 492.185 618.045C473.425 625.764 495.322 643.843 495.322 643.843C495.322 643.843 486.147 648.625 473.034 646.713C459.921 644.796 446.849 636.624 431.212 649.196C419.57 658.567 425.586 677.073 442.876 683.151C465.624 691.14 505.249 690.849 546.018 679.796C607.29 666.209 695.033 619.967 688.968 500.224C674.976 223.845 213.18 212.95 213.18 212.95L213.571 437.071C249.878 420.277 292.725 406.344 334.679 402.744C448.53 392.966 484.551 423.428 484.551 423.428C484.551 423.428 499.163 430.413 496.11 435.618C493.767 439.625 479.699 433.334 479.699 433.334C479.699 433.334 442.548 413.277 350.706 423.612C303.217 428.955 244.698 467.426 213.348 493.764L213.076 558.354C219.05 551.395 226.677 544.885 232.875 539.246C273.93 501.876 315.919 486.351 315.919 486.351C315.919 486.351 326.181 481.946 330.935 486.499C335.425 490.787 324.877 498.358 324.877 498.358C324.877 498.358 283.954 520.719 251.37 567.965C214.317 621.691 213.466 696.136 213.78 712.95H313.207Z" fill="#B13838" fill-opacity="0.22"/>
<path d="M436.69 858.232C440.71 862.252 448.484 860.995 454.055 855.425C459.625 849.855 460.882 842.08 456.862 838.06C452.842 834.041 445.068 835.297 439.497 840.868C433.927 846.438 432.67 854.212 436.69 858.232Z" fill="#B13838"/>
<path d="M397.558 901.006C402.832 906.28 413.032 904.631 420.341 897.322C427.649 890.014 429.298 879.814 424.024 874.54C418.75 869.265 408.549 870.914 401.241 878.223C393.933 885.531 392.284 895.731 397.558 901.006Z" fill="#B13838"/>
<path d="M425.23 1009.16C415.089 1006.74 327.629 983.199 332.532 895.026C335.898 834.55 393.018 737.889 464.441 729.115C501.609 724.551 525.49 741.478 531.268 766.769C533.344 775.848 532.255 790.065 517.097 800.573C510.768 804.955 506.008 800.545 501.71 801.692C495.086 803.47 489.365 806.711 486.371 813.808C478.386 832.709 506.86 829.801 506.86 829.801C506.86 829.801 503.668 839.757 492.919 847.801C482.167 855.842 467.022 859.43 464.707 879.525C462.991 894.494 480.388 903.269 497.074 895.177C519.023 884.526 547.212 855.926 568.61 818.897C602.908 765.384 633.083 669.813 544.066 589.488C338.611 404.085 0.00104483 727.286 0.00104483 727.286L158.758 885.484C172.9 847.593 193.749 807.038 221.267 774.43C295.934 685.934 343.285 681.663 343.285 681.663C343.285 681.663 358.695 676.131 360.188 682C361.343 686.512 346.813 692.144 346.813 692.144C346.813 692.144 306.01 704.583 247.507 777.701C217.256 815.508 202.528 884.644 198.687 925.732L244.164 971.599C243.524 962.397 244.386 952.328 244.839 943.9C247.833 888.057 266.943 846.992 266.943 846.992C266.943 846.992 271.182 836.524 277.808 836.336C284.057 836.151 281.852 849.062 281.852 849.062C281.852 849.062 268.341 894.198 278.4 950.954C289.839 1015.5 341.87 1068.75 353.984 1080.41L425.23 1009.16Z" fill="#B13838"/>
<path d="M596.668 1018.21C592.648 1014.19 593.905 1006.42 599.475 1000.85C605.046 995.275 612.82 994.018 616.84 998.038C620.86 1002.06 619.603 1009.83 614.032 1015.4C608.462 1020.97 600.688 1022.23 596.668 1018.21Z" fill="#B13838"/>
<path d="M553.895 1057.34C548.62 1052.07 550.269 1041.87 557.578 1034.56C564.886 1027.25 575.086 1025.6 580.361 1030.88C585.635 1036.15 583.986 1046.35 576.677 1053.66C569.369 1060.97 559.169 1062.62 553.895 1057.34Z" fill="#B13838"/>
<path d="M445.736 1029.67C448.163 1039.81 471.701 1127.27 559.874 1122.37C620.35 1119 717.011 1061.88 725.785 990.459C730.349 953.291 713.422 929.41 688.131 923.632C679.053 921.557 664.835 922.645 654.327 937.803C649.945 944.132 654.356 948.892 653.208 953.19C651.43 959.814 648.189 965.535 641.092 968.529C622.191 976.514 625.099 948.04 625.099 948.04C625.099 948.04 615.143 951.233 607.099 961.981C599.058 972.733 595.47 987.878 575.375 990.193C560.407 991.91 551.631 974.512 559.723 957.826C570.374 935.877 598.974 907.688 636.003 886.29C689.516 851.992 785.087 821.817 865.412 910.835C1050.82 1116.29 727.614 1454.9 727.614 1454.9L569.416 1296.14C607.308 1282 647.862 1261.15 680.47 1233.63C768.966 1158.97 773.237 1111.61 773.237 1111.61C773.237 1111.61 778.769 1096.21 772.9 1094.71C768.388 1093.56 762.756 1108.09 762.756 1108.09C762.756 1108.09 750.317 1148.89 677.2 1207.39C639.392 1237.64 570.257 1252.37 529.168 1256.21L483.301 1210.74C492.503 1211.38 502.572 1210.51 511 1210.06C566.843 1207.07 607.908 1187.96 607.908 1187.96C607.908 1187.96 618.377 1183.72 618.564 1177.09C618.749 1170.84 605.838 1173.05 605.838 1173.05C605.838 1173.05 560.703 1186.56 503.946 1176.5C439.405 1165.06 386.155 1113.03 374.49 1100.92L445.736 1029.67Z" fill="#B13838"/>
<path d="M860.25 434.672C864.27 438.692 863.073 446.407 857.576 451.903C852.079 457.4 844.365 458.597 840.345 454.577C836.325 450.558 837.522 442.843 843.019 437.346C848.516 431.849 856.231 430.652 860.25 434.672Z" fill="#B13838"/>
<path d="M902.483 396.08C907.758 401.354 906.187 411.476 898.975 418.688C891.763 425.9 881.641 427.471 876.367 422.197C871.093 416.923 872.663 406.801 879.875 399.589C887.087 392.377 897.209 390.806 902.483 396.08Z" fill="#B13838"/>
<path d="M1010.11 424.283C1007.63 414.194 983.673 327.155 896.115 331.444C836.059 334.388 740.413 390.494 732.168 461.388C727.879 498.28 744.853 522.116 770.014 528.023C779.047 530.144 793.164 529.157 803.503 514.167C807.814 507.91 803.401 503.151 804.512 498.889C806.235 492.321 809.417 486.659 816.447 483.732C835.17 475.924 832.47 504.191 832.47 504.191C832.47 504.191 842.339 501.086 850.26 490.461C858.177 479.833 861.641 464.811 881.588 462.644C896.446 461.038 905.278 478.379 897.35 494.901C886.914 516.635 858.689 544.45 822.045 565.462C769.112 599.18 674.371 628.526 593.988 539.566C408.452 334.243 727.287 2.14844e-05 727.287 2.14844e-05L885.489 158.754C847.941 172.552 807.791 192.996 775.58 220.117C688.161 293.707 684.23 340.719 684.23 340.719C684.23 340.719 678.836 355.99 684.676 357.511C689.166 358.689 694.665 344.292 694.665 344.292C694.665 344.292 706.753 303.84 779.002 246.206C816.36 216.404 884.943 202.229 925.734 198.684L971.599 244.164C962.453 243.468 952.457 244.257 944.087 244.652C888.632 247.257 847.964 265.971 847.964 265.971C847.964 265.971 837.593 270.112 837.45 276.694C837.308 282.9 850.12 280.795 850.12 280.795C850.12 280.795 894.868 267.67 951.316 278.037C1015.51 289.827 1068.75 341.866 1080.42 353.977L1010.11 424.283Z" fill="#B13838"/>
<path d="M1020.23 594.65C1016.21 590.63 1008.49 591.827 1003 597.324C997.5 602.821 996.303 610.535 1000.32 614.555C1004.34 618.575 1012.06 617.378 1017.55 611.881C1023.05 606.384 1024.25 598.67 1020.23 594.65Z" fill="#B13838"/>
<path d="M1058.82 552.417C1053.55 547.143 1043.42 548.713 1036.21 555.925C1029 563.137 1027.43 573.259 1032.7 578.533C1037.98 583.808 1048.1 582.237 1055.31 575.025C1062.52 567.813 1064.09 557.691 1058.82 552.417Z" fill="#B13838"/>
<path d="M1030.62 444.789C1040.71 447.267 1127.75 471.227 1123.46 558.785C1120.51 618.841 1064.41 714.487 993.512 722.732C956.62 727.021 932.784 710.047 926.878 684.886C924.756 675.853 925.743 661.736 940.733 651.397C946.991 647.086 951.749 651.499 956.011 650.388C962.579 648.665 968.241 645.483 971.169 638.453C978.976 619.73 950.709 622.43 950.709 622.43C950.709 622.43 953.815 612.561 964.439 604.641C975.067 596.724 990.089 593.26 992.256 573.312C993.862 558.454 976.522 549.622 959.999 557.55C938.265 567.986 910.451 596.211 889.438 632.855C855.72 685.788 826.374 780.53 915.334 860.912C1120.66 1046.45 1454.9 727.613 1454.9 727.613L1296.15 569.411C1282.35 606.96 1261.9 647.109 1234.78 679.32C1161.19 766.74 1114.18 770.671 1114.18 770.671C1114.18 770.671 1098.91 776.064 1097.39 770.224C1096.21 765.734 1110.61 760.235 1110.61 760.235C1110.61 760.235 1151.06 748.148 1208.69 675.898C1238.5 638.54 1252.67 569.958 1256.22 529.166L1210.74 483.301C1211.43 492.447 1210.64 502.443 1210.25 510.813C1207.64 566.268 1188.93 606.936 1188.93 606.936C1188.93 606.936 1184.79 617.307 1178.21 617.45C1172 617.592 1174.1 604.781 1174.1 604.781C1174.1 604.781 1187.23 560.032 1176.86 503.584C1165.07 439.393 1113.03 386.151 1100.92 374.483L1030.62 444.789Z" fill="#B13838"/>
<path d="M858.232 1018.21C862.252 1014.19 860.995 1006.42 855.425 1000.85C849.855 995.275 842.08 994.018 838.06 998.038C834.041 1002.06 835.297 1009.83 840.868 1015.4C846.438 1020.97 854.212 1022.23 858.232 1018.21Z" fill="#B13838" fill-opacity="0.22"/>
<path d="M901.006 1057.34C906.28 1052.07 904.631 1041.87 897.322 1034.56C890.014 1027.25 879.814 1025.6 874.54 1030.88C869.265 1036.15 870.914 1046.35 878.223 1053.66C885.531 1060.97 895.731 1062.62 901.006 1057.34Z" fill="#B13838" fill-opacity="0.22"/>
<path d="M1009.16 1029.67C1006.74 1039.81 983.199 1127.27 895.026 1122.37C834.55 1119 737.889 1061.88 729.115 990.459C724.551 953.291 741.478 929.41 766.769 923.632C775.848 921.557 790.065 922.645 800.574 937.803C804.955 944.132 800.545 948.892 801.692 953.19C803.47 959.814 806.711 965.535 813.808 968.529C832.709 976.514 829.801 948.04 829.801 948.04C829.801 948.04 839.757 951.233 847.801 961.981C855.842 972.733 859.43 987.878 879.525 990.193C894.494 991.91 903.269 974.512 895.177 957.826C884.526 935.877 855.926 907.688 818.897 886.29C765.384 851.992 669.813 821.817 589.488 910.834C404.085 1116.29 727.286 1454.9 727.286 1454.9L885.484 1296.14C847.593 1282 807.038 1261.15 774.43 1233.63C685.934 1158.97 681.663 1111.61 681.663 1111.61C681.663 1111.61 676.131 1096.21 682 1094.71C686.512 1093.56 692.144 1108.09 692.144 1108.09C692.144 1108.09 704.583 1148.89 777.701 1207.39C815.508 1237.64 884.644 1252.37 925.732 1256.21L971.599 1210.74C962.397 1211.38 952.328 1210.51 943.9 1210.06C888.057 1207.07 846.992 1187.96 846.992 1187.96C846.992 1187.96 836.524 1183.72 836.336 1177.09C836.151 1170.84 849.062 1173.05 849.062 1173.05C849.062 1173.05 894.198 1186.56 950.954 1176.5C1015.5 1165.06 1068.75 1113.03 1080.41 1100.92L1009.16 1029.67Z" fill="#B13838" fill-opacity="0.22"/>
<path d="M1018.21 858.232C1014.19 862.252 1006.42 860.995 1000.85 855.425C995.275 849.855 994.018 842.08 998.038 838.06C1002.06 834.041 1009.83 835.297 1015.4 840.868C1020.97 846.438 1022.23 854.212 1018.21 858.232Z" fill="#B13838" fill-opacity="0.22"/>
<path d="M1057.34 901.006C1052.07 906.28 1041.87 904.631 1034.56 897.322C1027.25 890.014 1025.6 879.814 1030.88 874.54C1036.15 869.265 1046.35 870.914 1053.66 878.223C1060.97 885.531 1062.62 895.731 1057.34 901.006Z" fill="#B13838" fill-opacity="0.22"/>
<path d="M1029.67 1009.16C1039.81 1006.74 1127.27 983.199 1122.37 895.026C1119 834.55 1061.88 737.889 990.459 729.115C953.291 724.551 929.41 741.478 923.632 766.769C921.557 775.848 922.645 790.065 937.804 800.573C944.132 804.955 948.892 800.545 953.19 801.692C959.814 803.47 965.535 806.711 968.529 813.808C976.514 832.709 948.04 829.801 948.04 829.801C948.04 829.801 951.233 839.757 961.981 847.801C972.733 855.842 987.878 859.43 990.193 879.525C991.91 894.494 974.512 903.269 957.826 895.177C935.877 884.526 907.688 855.926 886.29 818.897C851.992 765.384 821.817 669.813 910.835 589.488C1116.29 404.085 1454.9 727.286 1454.9 727.286L1296.14 885.484C1282 847.593 1261.15 807.038 1233.63 774.43C1158.97 685.934 1111.61 681.663 1111.61 681.663C1111.61 681.663 1096.21 676.131 1094.71 682C1093.56 686.512 1108.09 692.144 1108.09 692.144C1108.09 692.144 1148.89 704.583 1207.39 777.701C1237.64 815.508 1252.37 884.644 1256.21 925.732L1210.74 971.599C1211.38 962.397 1210.51 952.328 1210.06 943.9C1207.07 888.057 1187.96 846.992 1187.96 846.992C1187.96 846.992 1183.72 836.524 1177.09 836.336C1170.84 836.151 1173.05 849.062 1173.05 849.062C1173.05 849.062 1186.56 894.198 1176.5 950.954C1165.06 1015.5 1113.03 1068.75 1100.92 1080.41L1029.67 1009.16Z" fill="#B13838" fill-opacity="0.22"/>
<path d="M434.672 594.65C438.692 590.63 446.407 591.827 451.903 597.324C457.4 602.821 458.597 610.535 454.577 614.555C450.558 618.575 442.843 617.378 437.346 611.881C431.849 606.384 430.652 598.67 434.672 594.65Z" fill="#B13838" fill-opacity="0.22"/>
<path d="M396.08 552.417C401.354 547.142 411.476 548.713 418.688 555.925C425.9 563.137 427.471 573.259 422.197 578.533C416.923 583.808 406.801 582.237 399.589 575.025C392.377 567.813 390.806 557.691 396.08 552.417Z" fill="#B13838" fill-opacity="0.22"/>
<path d="M424.283 444.789C414.194 447.267 327.155 471.227 331.444 558.785C334.388 618.841 390.494 714.487 461.388 722.732C498.28 727.021 522.116 710.047 528.023 684.886C530.144 675.853 529.157 661.736 514.167 651.397C507.91 647.086 503.151 651.499 498.889 650.388C492.321 648.665 486.659 645.483 483.732 638.453C475.924 619.73 504.191 622.43 504.191 622.43C504.191 622.43 501.086 612.561 490.461 604.641C479.833 596.724 464.811 593.259 462.644 573.312C461.038 558.454 478.379 549.622 494.901 557.55C516.635 567.986 544.45 596.211 565.462 632.855C599.18 685.788 628.526 780.529 539.566 860.912C334.243 1046.45 1.91331e-05 727.613 1.91331e-05 727.613L158.754 569.411C172.552 606.96 192.996 647.109 220.117 679.32C293.707 766.74 340.719 770.67 340.719 770.67C340.719 770.67 355.99 776.064 357.511 770.224C358.689 765.734 344.292 760.235 344.292 760.235C344.292 760.235 303.84 748.148 246.206 675.898C216.404 638.54 202.228 569.958 198.684 529.166L244.164 483.301C243.468 492.447 244.257 502.443 244.652 510.813C247.257 566.268 265.971 606.936 265.971 606.936C265.971 606.936 270.112 617.307 276.694 617.45C282.9 617.592 280.795 604.781 280.795 604.781C280.795 604.781 267.67 560.032 278.037 503.584C289.827 439.393 341.866 386.151 353.977 374.483L424.283 444.789Z" fill="#B13838" fill-opacity="0.22"/>
<path d="M594.65 434.672C590.63 438.692 591.827 446.407 597.324 451.903C602.821 457.4 610.535 458.597 614.555 454.577C618.575 450.558 617.378 442.843 611.881 437.346C606.384 431.849 598.67 430.652 594.65 434.672Z" fill="#B13838" fill-opacity="0.22"/>
<path d="M552.417 396.08C547.143 401.354 548.713 411.476 555.925 418.688C563.137 425.9 573.259 427.471 578.533 422.197C583.808 416.923 582.237 406.801 575.025 399.589C567.813 392.377 557.691 390.806 552.417 396.08Z" fill="#B13838" fill-opacity="0.22"/>
<path d="M444.789 424.283C447.267 414.193 471.227 327.155 558.785 331.444C618.841 334.388 714.487 390.494 722.732 461.388C727.021 498.28 710.047 522.116 684.886 528.023C675.853 530.144 661.736 529.157 651.397 514.167C647.086 507.91 651.499 503.151 650.388 498.889C648.665 492.321 645.483 486.659 638.453 483.732C619.73 475.924 622.43 504.191 622.43 504.191C622.43 504.191 612.561 501.086 604.641 490.461C596.724 479.833 593.26 464.811 573.312 462.644C558.454 461.038 549.622 478.379 557.55 494.901C567.986 516.635 596.211 544.45 632.855 565.462C685.788 599.18 780.53 628.526 860.912 539.566C1046.45 334.243 727.613 0 727.613 0L569.411 158.754C606.96 172.552 647.109 192.996 679.32 220.117C766.74 293.707 770.671 340.719 770.671 340.719C770.671 340.719 776.064 355.99 770.224 357.511C765.734 358.689 760.235 344.292 760.235 344.292C760.235 344.292 748.148 303.84 675.898 246.206C638.54 216.404 569.958 202.228 529.166 198.684L483.301 244.164C492.447 243.468 502.443 244.257 510.813 244.652C566.268 247.257 606.936 265.971 606.936 265.971C606.936 265.971 617.307 270.112 617.45 276.694C617.592 282.9 604.781 280.795 604.781 280.795C604.781 280.795 560.032 267.67 503.584 278.037C439.393 289.827 386.151 341.866 374.483 353.977L444.789 424.283Z" fill="#B13838" fill-opacity="0.22"/>
<path d="M858.232 1018.21C862.252 1014.19 860.995 1006.42 855.425 1000.85C849.855 995.275 842.08 994.018 838.06 998.038C834.041 1002.06 835.297 1009.83 840.868 1015.4C846.438 1020.97 854.212 1022.23 858.232 1018.21Z" fill="#B13838"/>
<path d="M901.006 1057.34C906.28 1052.07 904.631 1041.87 897.322 1034.56C890.014 1027.25 879.814 1025.6 874.54 1030.88C869.265 1036.15 870.914 1046.35 878.223 1053.66C885.531 1060.97 895.731 1062.62 901.006 1057.34Z" fill="#B13838"/>
<path d="M1009.16 1029.67C1006.74 1039.81 983.199 1127.27 895.026 1122.37C834.55 1119 737.889 1061.88 729.115 990.459C724.551 953.291 741.478 929.41 766.769 923.632C775.848 921.557 790.065 922.645 800.574 937.803C804.955 944.132 800.545 948.892 801.692 953.19C803.47 959.814 806.711 965.535 813.808 968.529C832.709 976.514 829.801 948.04 829.801 948.04C829.801 948.04 839.757 951.233 847.801 961.981C855.842 972.733 859.43 987.878 879.525 990.193C894.494 991.91 903.269 974.512 895.177 957.826C884.526 935.877 855.926 907.688 818.897 886.29C765.384 851.992 669.813 821.817 589.488 910.834C404.085 1116.29 727.286 1454.9 727.286 1454.9L885.484 1296.14C847.593 1282 807.038 1261.15 774.43 1233.63C685.934 1158.97 681.663 1111.61 681.663 1111.61C681.663 1111.61 676.131 1096.21 682 1094.71C686.512 1093.56 692.144 1108.09 692.144 1108.09C692.144 1108.09 704.583 1148.89 777.701 1207.39C815.508 1237.64 884.644 1252.37 925.732 1256.21L971.599 1210.74C962.397 1211.38 952.328 1210.51 943.9 1210.06C888.057 1207.07 846.992 1187.96 846.992 1187.96C846.992 1187.96 836.524 1183.72 836.336 1177.09C836.151 1170.84 849.062 1173.05 849.062 1173.05C849.062 1173.05 894.198 1186.56 950.954 1176.5C1015.5 1165.06 1068.75 1113.03 1080.41 1100.92L1009.16 1029.67Z" fill="#B13838"/>
<path d="M1018.21 858.232C1014.19 862.252 1006.42 860.995 1000.85 855.425C995.275 849.855 994.018 842.08 998.038 838.06C1002.06 834.041 1009.83 835.297 1015.4 840.868C1020.97 846.438 1022.23 854.212 1018.21 858.232Z" fill="#B13838"/>
<path d="M1057.34 901.006C1052.07 906.28 1041.87 904.631 1034.56 897.322C1027.25 890.014 1025.6 879.814 1030.88 874.54C1036.15 869.265 1046.35 870.914 1053.66 878.223C1060.97 885.531 1062.62 895.731 1057.34 901.006Z" fill="#B13838"/>
<path d="M1029.67 1009.16C1039.81 1006.74 1127.27 983.199 1122.37 895.026C1119 834.55 1061.88 737.889 990.459 729.115C953.291 724.551 929.41 741.478 923.632 766.769C921.557 775.848 922.645 790.065 937.804 800.573C944.132 804.955 948.892 800.545 953.19 801.692C959.814 803.47 965.535 806.711 968.529 813.808C976.514 832.709 948.04 829.801 948.04 829.801C948.04 829.801 951.233 839.757 961.981 847.801C972.733 855.842 987.878 859.43 990.193 879.525C991.91 894.494 974.512 903.269 957.826 895.177C935.877 884.526 907.688 855.926 886.29 818.897C851.992 765.384 821.817 669.813 910.835 589.488C1116.29 404.085 1454.9 727.286 1454.9 727.286L1296.14 885.484C1282 847.593 1261.15 807.038 1233.63 774.43C1158.97 685.934 1111.61 681.663 1111.61 681.663C1111.61 681.663 1096.21 676.131 1094.71 682C1093.56 686.512 1108.09 692.144 1108.09 692.144C1108.09 692.144 1148.89 704.583 1207.39 777.701C1237.64 815.508 1252.37 884.644 1256.21 925.732L1210.74 971.599C1211.38 962.397 1210.51 952.328 1210.06 943.9C1207.07 888.057 1187.96 846.992 1187.96 846.992C1187.96 846.992 1183.72 836.524 1177.09 836.336C1170.84 836.151 1173.05 849.062 1173.05 849.062C1173.05 849.062 1186.56 894.198 1176.5 950.954C1165.06 1015.5 1113.03 1068.75 1100.92 1080.41L1029.67 1009.16Z" fill="#B13838"/>
<path d="M434.672 594.65C438.692 590.63 446.407 591.827 451.903 597.324C457.4 602.821 458.597 610.535 454.577 614.555C450.558 618.575 442.843 617.378 437.346 611.881C431.849 606.384 430.652 598.67 434.672 594.65Z" fill="#B13838"/>
<path d="M396.08 552.417C401.354 547.142 411.476 548.713 418.688 555.925C425.9 563.137 427.471 573.259 422.197 578.533C416.923 583.808 406.801 582.237 399.589 575.025C392.377 567.813 390.806 557.691 396.08 552.417Z" fill="#B13838"/>
<path d="M424.283 444.789C414.194 447.267 327.155 471.227 331.444 558.785C334.388 618.841 390.494 714.487 461.388 722.732C498.28 727.021 522.116 710.047 528.023 684.886C530.144 675.853 529.157 661.736 514.167 651.397C507.91 647.086 503.151 651.499 498.889 650.388C492.321 648.665 486.659 645.483 483.732 638.453C475.924 619.73 504.191 622.43 504.191 622.43C504.191 622.43 501.086 612.561 490.461 604.641C479.833 596.724 464.811 593.259 462.644 573.312C461.038 558.454 478.379 549.622 494.901 557.55C516.635 567.986 544.45 596.211 565.462 632.855C599.18 685.788 628.526 780.529 539.566 860.912C334.243 1046.45 1.91331e-05 727.613 1.91331e-05 727.613L158.754 569.411C172.552 606.96 192.996 647.109 220.117 679.32C293.707 766.74 340.719 770.67 340.719 770.67C340.719 770.67 355.99 776.064 357.511 770.224C358.689 765.734 344.292 760.235 344.292 760.235C344.292 760.235 303.84 748.148 246.206 675.898C216.404 638.54 202.228 569.958 198.684 529.166L244.164 483.301C243.468 492.447 244.257 502.443 244.652 510.813C247.257 566.268 265.971 606.936 265.971 606.936C265.971 606.936 270.112 617.307 276.694 617.45C282.9 617.592 280.795 604.781 280.795 604.781C280.795 604.781 267.67 560.032 278.037 503.584C289.827 439.393 341.866 386.151 353.977 374.483L424.283 444.789Z" fill="#B13838"/>
<path d="M594.65 434.672C590.63 438.692 591.827 446.407 597.324 451.903C602.821 457.4 610.535 458.597 614.555 454.577C618.575 450.558 617.378 442.843 611.881 437.346C606.384 431.849 598.67 430.652 594.65 434.672Z" fill="#B13838"/>
<path d="M552.417 396.08C547.143 401.354 548.713 411.476 555.925 418.688C563.137 425.9 573.259 427.471 578.533 422.197C583.808 416.923 582.237 406.801 575.025 399.589C567.813 392.377 557.691 390.806 552.417 396.08Z" fill="#B13838"/>
<path d="M444.789 424.283C447.267 414.193 471.227 327.155 558.785 331.444C618.841 334.388 714.487 390.494 722.732 461.388C727.021 498.28 710.047 522.116 684.886 528.023C675.853 530.144 661.736 529.157 651.397 514.167C647.086 507.91 651.499 503.151 650.388 498.889C648.665 492.321 645.483 486.659 638.453 483.732C619.73 475.924 622.43 504.191 622.43 504.191C622.43 504.191 612.561 501.086 604.641 490.461C596.724 479.833 593.26 464.811 573.312 462.644C558.454 461.038 549.622 478.379 557.55 494.901C567.986 516.635 596.211 544.45 632.855 565.462C685.788 599.18 780.53 628.526 860.912 539.566C1046.45 334.243 727.613 0 727.613 0L569.411 158.754C606.96 172.552 647.109 192.996 679.32 220.117C766.74 293.707 770.671 340.719 770.671 340.719C770.671 340.719 776.064 355.99 770.224 357.511C765.734 358.689 760.235 344.292 760.235 344.292C760.235 344.292 748.148 303.84 675.898 246.206C638.54 216.404 569.958 202.228 529.166 198.684L483.301 244.164C492.447 243.468 502.443 244.257 510.813 244.652C566.268 247.257 606.936 265.971 606.936 265.971C606.936 265.971 617.307 270.112 617.45 276.694C617.592 282.9 604.781 280.795 604.781 280.795C604.781 280.795 560.032 267.67 503.584 278.037C439.393 289.827 386.151 341.866 374.483 353.977L444.789 424.283Z" fill="#B13838"/>
<path d="M1018.21 596.668C1014.19 592.648 1006.42 593.905 1000.85 599.475C995.275 605.046 994.018 612.82 998.038 616.84C1002.06 620.86 1009.83 619.603 1015.4 614.033C1020.97 608.462 1022.23 600.688 1018.21 596.668Z" fill="#B13838" fill-opacity="0.22"/>
<path d="M1057.34 553.895C1052.07 548.62 1041.87 550.269 1034.56 557.578C1027.25 564.886 1025.6 575.086 1030.88 580.361C1036.15 585.635 1046.35 583.986 1053.66 576.677C1060.97 569.369 1062.62 559.169 1057.34 553.895Z" fill="#B13838" fill-opacity="0.22"/>
<path d="M1029.67 445.736C1039.81 448.163 1127.27 471.701 1122.37 559.874C1119 620.35 1061.88 717.011 990.459 725.785C953.291 730.349 929.41 713.422 923.632 688.131C921.557 679.053 922.645 664.835 937.803 654.327C944.132 649.945 948.892 654.356 953.19 653.209C959.814 651.43 965.535 648.189 968.529 641.092C976.514 622.192 948.04 625.099 948.04 625.099C948.04 625.099 951.233 615.143 961.981 607.099C972.733 599.058 987.878 595.47 990.193 575.375C991.91 560.407 974.512 551.631 957.826 559.723C935.877 570.374 907.688 598.974 886.29 636.003C851.992 689.516 821.817 785.087 910.834 865.412C1116.29 1050.82 1454.9 727.614 1454.9 727.614L1296.14 569.416C1282 607.308 1261.15 647.862 1233.63 680.47C1158.97 768.966 1111.61 773.237 1111.61 773.237C1111.61 773.237 1096.21 778.769 1094.71 772.9C1093.56 768.388 1108.09 762.756 1108.09 762.756C1108.09 762.756 1148.89 750.317 1207.39 677.2C1237.64 639.392 1252.37 570.257 1256.21 529.168L1210.74 483.301C1211.38 492.503 1210.51 502.572 1210.06 511C1207.07 566.843 1187.96 607.908 1187.96 607.908C1187.96 607.908 1183.72 618.377 1177.09 618.564C1170.84 618.749 1173.05 605.838 1173.05 605.838C1173.05 605.838 1186.56 560.703 1176.5 503.946C1165.06 439.405 1113.03 386.155 1100.92 374.49L1029.67 445.736Z" fill="#B13838" fill-opacity="0.22"/>
<path d="M858.232 436.69C862.252 440.71 860.995 448.484 855.425 454.055C849.855 459.625 842.08 460.882 838.06 456.862C834.041 452.842 835.297 445.068 840.868 439.497C846.438 433.927 854.212 432.67 858.232 436.69Z" fill="#B13838" fill-opacity="0.22"/>
<path d="M901.006 397.558C906.28 402.832 904.631 413.032 897.322 420.341C890.014 427.649 879.814 429.298 874.54 424.024C869.265 418.75 870.914 408.549 878.223 401.241C885.531 393.933 895.731 392.284 901.006 397.558Z" fill="#B13838" fill-opacity="0.22"/>
<path d="M1009.16 425.23C1006.74 415.089 983.199 327.629 895.026 332.532C834.55 335.898 737.889 393.018 729.115 464.441C724.551 501.609 741.478 525.49 766.769 531.268C775.848 533.344 790.065 532.255 800.573 517.097C804.955 510.768 800.545 506.008 801.692 501.71C803.47 495.086 806.711 489.365 813.808 486.371C832.709 478.386 829.801 506.86 829.801 506.86C829.801 506.86 839.757 503.668 847.801 492.919C855.842 482.167 859.43 467.022 879.525 464.707C894.494 462.991 903.269 480.388 895.177 497.074C884.526 519.023 855.926 547.212 818.897 568.61C765.384 602.908 669.813 633.083 589.488 544.066C404.085 338.611 727.286 0.00104483 727.286 0.00104483L885.484 158.758C847.593 172.9 807.038 193.749 774.43 221.267C685.934 295.934 681.663 343.285 681.663 343.285C681.663 343.285 676.131 358.695 682 360.188C686.512 361.343 692.144 346.813 692.144 346.813C692.144 346.813 704.583 306.01 777.701 247.507C815.508 217.256 884.644 202.528 925.732 198.687L971.599 244.164C962.397 243.524 952.328 244.386 943.9 244.839C888.057 247.833 846.992 266.943 846.992 266.943C846.992 266.943 836.524 271.182 836.336 277.808C836.151 284.057 849.062 281.852 849.062 281.852C849.062 281.852 894.198 268.341 950.954 278.4C1015.5 289.839 1068.75 341.87 1080.41 353.984L1009.16 425.23Z" fill="#B13838" fill-opacity="0.22"/>
<path d="M594.65 1020.23C590.63 1016.21 591.827 1008.49 597.324 1003C602.821 997.5 610.535 996.303 614.555 1000.32C618.575 1004.34 617.378 1012.06 611.881 1017.55C606.384 1023.05 598.67 1024.25 594.65 1020.23Z" fill="#B13838" fill-opacity="0.22"/>
<path d="M552.417 1058.82C547.142 1053.55 548.713 1043.42 555.925 1036.21C563.137 1029 573.259 1027.43 578.533 1032.7C583.808 1037.98 582.237 1048.1 575.025 1055.31C567.813 1062.52 557.691 1064.09 552.417 1058.82Z" fill="#B13838" fill-opacity="0.22"/>
<path d="M444.789 1030.62C447.267 1040.71 471.227 1127.75 558.785 1123.46C618.841 1120.51 714.487 1064.41 722.732 993.512C727.021 956.62 710.047 932.784 684.886 926.878C675.853 924.756 661.736 925.743 651.397 940.733C647.086 946.991 651.499 951.749 650.388 956.011C648.665 962.579 645.483 968.241 638.453 971.169C619.73 978.976 622.43 950.709 622.43 950.709C622.43 950.709 612.561 953.815 604.641 964.439C596.724 975.067 593.259 990.089 573.312 992.256C558.454 993.862 549.622 976.522 557.55 959.999C567.986 938.265 596.211 910.451 632.855 889.438C685.788 855.72 780.529 826.374 860.912 915.334C1046.45 1120.66 727.613 1454.9 727.613 1454.9L569.411 1296.15C606.96 1282.35 647.109 1261.9 679.32 1234.78C766.74 1161.19 770.67 1114.18 770.67 1114.18C770.67 1114.18 776.064 1098.91 770.224 1097.39C765.734 1096.21 760.235 1110.61 760.235 1110.61C760.235 1110.61 748.148 1151.06 675.898 1208.69C638.54 1238.5 569.958 1252.67 529.166 1256.22L483.301 1210.74C492.447 1211.43 502.443 1210.64 510.813 1210.25C566.268 1207.64 606.936 1188.93 606.936 1188.93C606.936 1188.93 617.307 1184.79 617.45 1178.21C617.592 1172 604.781 1174.1 604.781 1174.1C604.781 1174.1 560.032 1187.23 503.584 1176.86C439.393 1165.07 386.151 1113.03 374.483 1100.92L444.789 1030.62Z" fill="#B13838" fill-opacity="0.22"/>
<path d="M434.672 860.25C438.692 864.27 446.407 863.073 451.903 857.576C457.4 852.079 458.597 844.365 454.577 840.345C450.558 836.325 442.843 837.522 437.346 843.019C431.849 848.516 430.652 856.231 434.672 860.25Z" fill="#B13838" fill-opacity="0.22"/>
<path d="M396.08 902.484C401.354 907.758 411.476 906.187 418.688 898.975C425.9 891.763 427.471 881.641 422.197 876.367C416.923 871.093 406.801 872.663 399.589 879.875C392.377 887.087 390.806 897.209 396.08 902.484Z" fill="#B13838" fill-opacity="0.22"/>
<path d="M424.283 1010.11C414.193 1007.63 327.155 983.673 331.444 896.115C334.388 836.059 390.494 740.414 461.388 732.168C498.28 727.879 522.116 744.853 528.023 770.014C530.144 779.047 529.157 793.164 514.167 803.503C507.91 807.814 503.151 803.401 498.889 804.512C492.321 806.235 486.659 809.417 483.732 816.447C475.924 835.17 504.191 832.47 504.191 832.47C504.191 832.47 501.086 842.339 490.461 850.26C479.833 858.177 464.811 861.641 462.644 881.588C461.038 896.446 478.379 905.278 494.901 897.35C516.635 886.914 544.45 858.689 565.462 822.045C599.18 769.112 628.526 674.371 539.566 593.988C334.243 408.452 0 727.287 0 727.287L158.754 885.489C172.552 847.941 192.996 807.791 220.117 775.58C293.707 688.161 340.719 684.23 340.719 684.23C340.719 684.23 355.99 678.836 357.511 684.676C358.689 689.166 344.292 694.665 344.292 694.665C344.292 694.665 303.84 706.753 246.206 779.002C216.404 816.36 202.228 884.943 198.684 925.734L244.164 971.599C243.468 962.454 244.257 952.457 244.652 944.087C247.257 888.632 265.971 847.964 265.971 847.964C265.971 847.964 270.112 837.593 276.694 837.451C282.9 837.308 280.795 850.12 280.795 850.12C280.795 850.12 267.67 894.868 278.037 951.316C289.827 1015.51 341.866 1068.75 353.977 1080.42L424.283 1010.11Z" fill="#B13838" fill-opacity="0.22"/>
<path d="M710.845 773.339C711.704 773.339 712.401 772.374 712.401 771.182C712.401 769.991 711.704 769.025 710.845 769.025C709.985 769.025 709.288 769.991 709.288 771.182C709.288 772.374 709.985 773.339 710.845 773.339Z" fill="#B13838"/>
<path d="M711.234 782.097C712.362 782.097 713.276 780.83 713.276 779.267C713.276 777.704 712.362 776.437 711.234 776.437C710.106 776.437 709.192 777.704 709.192 779.267C709.192 780.83 710.106 782.097 711.234 782.097Z" fill="#B13838"/>
<path d="M725.758 790.703C724.414 791.528 712.545 798.362 703.642 788.41C697.535 781.584 693.308 765.141 700.006 756.566C703.492 752.104 707.856 751.361 711.178 753.447C712.37 754.196 713.774 755.832 713.277 758.577C713.069 759.722 712.088 759.759 711.751 760.341C711.233 761.24 710.968 762.198 711.407 763.277C712.574 766.152 715.308 762.796 715.308 762.796C715.308 762.796 716.031 764.202 715.742 766.212C715.452 768.221 714.216 770.224 716.117 772.62C717.534 774.404 720.332 773.482 721.251 770.833C722.459 767.347 722.416 761.275 720.744 755.028C718.69 745.639 711.697 732.194 693.59 733.123C651.798 735.267 650.151 806.03 650.151 806.03L684.041 805.971C681.502 800.407 679.395 793.841 678.85 787.413C677.372 769.967 681.978 764.447 681.978 764.447C681.978 764.447 683.034 762.208 683.821 762.676C684.427 763.035 683.476 765.19 683.476 765.19C683.476 765.19 680.443 770.883 682.006 784.957C682.814 792.234 688.631 801.201 692.614 806.005L702.381 806.046C701.328 805.131 700.344 803.962 699.491 803.013C693.84 796.721 691.493 790.287 691.493 790.287C691.493 790.287 690.827 788.715 691.515 787.986C692.163 787.298 693.308 788.915 693.308 788.915C693.308 788.915 696.69 795.185 703.834 800.178C711.958 805.856 723.215 805.987 725.758 805.938V790.703Z" fill="#B13838"/>
<path d="M745.056 773.339C744.196 773.339 743.499 772.374 743.499 771.182C743.499 769.991 744.196 769.025 745.056 769.025C745.915 769.025 746.612 769.991 746.612 771.182C746.612 772.374 745.915 773.339 745.056 773.339Z" fill="#B13838"/>
<path d="M744.666 782.097C743.538 782.097 742.624 780.83 742.624 779.267C742.624 777.704 743.538 776.437 744.666 776.437C745.794 776.437 746.708 777.704 746.708 779.267C746.708 780.83 745.794 782.097 744.666 782.097Z" fill="#B13838"/>
<path d="M730.143 790.703C731.486 791.528 743.355 798.362 752.258 788.41C758.365 781.584 762.593 765.141 755.894 756.566C752.408 752.104 748.044 751.361 744.722 753.447C743.53 754.196 742.126 755.832 742.623 758.577C742.831 759.722 743.812 759.759 744.149 760.341C744.667 761.24 744.932 762.198 744.494 763.277C743.326 766.152 740.593 762.796 740.593 762.796C740.593 762.796 739.869 764.202 740.159 766.212C740.448 768.221 741.684 770.224 739.783 772.62C738.366 774.404 735.568 773.482 734.649 770.833C733.441 767.347 733.485 761.275 735.156 755.028C737.211 745.639 744.203 732.194 762.31 733.123C804.102 735.267 805.749 806.03 805.749 806.03L771.859 805.971C774.399 800.407 776.506 793.841 777.05 787.413C778.529 769.967 773.922 764.447 773.922 764.447C773.922 764.447 772.866 762.208 772.079 762.676C771.473 763.035 772.424 765.19 772.424 765.19C772.424 765.19 775.457 770.883 773.894 784.957C773.087 792.234 767.269 801.201 763.286 806.005L753.52 806.046C754.572 805.131 755.556 803.962 756.409 803.013C762.06 796.721 764.407 790.287 764.407 790.287C764.407 790.287 765.073 788.715 764.385 787.986C763.737 787.298 762.592 788.915 762.592 788.915C762.592 788.915 759.211 795.185 752.066 800.178C743.942 805.856 732.685 805.987 730.143 805.938V790.703Z" fill="#B13838"/>
<path d="M710.845 682.762C711.704 682.762 712.401 683.715 712.401 684.89C712.401 686.066 711.704 687.019 710.845 687.019C709.985 687.019 709.288 686.066 709.288 684.89C709.288 683.715 709.985 682.762 710.845 682.762Z" fill="#B13838"/>
<path d="M711.234 674.12C712.362 674.12 713.276 675.37 713.276 676.912C713.276 678.454 712.362 679.705 711.234 679.705C710.106 679.705 709.192 678.454 709.192 676.912C709.192 675.37 710.106 674.12 711.234 674.12Z" fill="#B13838"/>
<path d="M725.758 665.627C724.414 664.813 712.545 658.069 703.642 667.889C697.535 674.626 693.308 690.851 700.006 699.313C703.492 703.717 707.856 704.45 711.178 702.392C712.37 701.653 713.774 700.038 713.277 697.329C713.069 696.199 712.088 696.162 711.751 695.588C711.233 694.701 710.968 693.756 711.407 692.691C712.574 689.854 715.308 693.165 715.308 693.165C715.308 693.165 716.031 691.778 715.742 689.795C715.452 687.812 714.216 685.836 716.117 683.471C717.534 681.711 720.332 682.621 721.251 685.235C722.459 688.675 722.416 694.667 720.744 700.831C718.69 710.097 711.697 723.364 693.59 722.447C651.798 720.332 650.151 650.502 650.151 650.502L684.041 650.561C681.502 656.051 679.395 662.53 678.85 668.874C677.372 686.09 681.978 691.537 681.978 691.537C681.978 691.537 683.034 693.746 683.821 693.285C684.427 692.93 683.476 690.803 683.476 690.803C683.476 690.803 680.443 685.185 682.006 671.298C682.814 664.117 688.631 655.268 692.614 650.527L702.381 650.486C701.328 651.39 700.344 652.543 699.491 653.48C693.84 659.688 691.493 666.037 691.493 666.037C691.493 666.037 690.827 667.589 691.515 668.308C692.163 668.987 693.308 667.392 693.308 667.392C693.308 667.392 696.69 661.204 703.834 656.277C711.958 650.674 723.215 650.545 725.758 650.593V665.627Z" fill="#B13838"/>
<path d="M745.056 682.762C744.196 682.762 743.499 683.715 743.499 684.89C743.499 686.066 744.196 687.019 745.056 687.019C745.915 687.019 746.612 686.066 746.612 684.89C746.612 683.715 745.915 682.762 745.056 682.762Z" fill="#B13838"/>
<path d="M744.666 674.12C743.538 674.12 742.624 675.37 742.624 676.912C742.624 678.454 743.538 679.705 744.666 679.705C745.794 679.705 746.708 678.454 746.708 676.912C746.708 675.37 745.794 674.12 744.666 674.12Z" fill="#B13838"/>
<path d="M730.143 665.627C731.486 664.813 743.355 658.069 752.258 667.889C758.365 674.626 762.593 690.851 755.894 699.313C752.408 703.717 748.044 704.45 744.722 702.392C743.53 701.653 742.126 700.038 742.623 697.329C742.831 696.199 743.812 696.162 744.149 695.588C744.667 694.701 744.932 693.756 744.494 692.691C743.326 689.854 740.593 693.165 740.593 693.165C740.593 693.165 739.869 691.778 740.159 689.795C740.448 687.812 741.684 685.836 739.783 683.471C738.366 681.711 735.568 682.621 734.649 685.235C733.441 688.675 733.485 694.667 735.156 700.831C737.211 710.097 744.203 723.364 762.31 722.447C804.102 720.332 805.749 650.502 805.749 650.502L771.859 650.561C774.399 656.051 776.506 662.53 777.05 668.874C778.529 686.09 773.922 691.537 773.922 691.537C773.922 691.537 772.866 693.746 772.079 693.285C771.473 692.93 772.424 690.803 772.424 690.803C772.424 690.803 775.457 685.185 773.894 671.298C773.087 664.117 767.269 655.268 763.286 650.527L753.52 650.486C754.572 651.39 755.556 652.543 756.409 653.48C762.06 659.688 764.407 666.037 764.407 666.037C764.407 666.037 765.073 667.589 764.385 668.308C763.737 668.987 762.592 667.392 762.592 667.392C762.592 667.392 759.211 661.204 752.066 656.277C743.942 650.674 732.685 650.545 730.143 650.593V665.627Z" fill="#B13838"/>
<path d="M773.023 745.372C773.023 744.512 772.057 743.815 770.866 743.815C769.675 743.815 768.709 744.512 768.709 745.372C768.709 746.231 769.675 746.928 770.866 746.928C772.057 746.928 773.023 746.231 773.023 745.372Z" fill="#B13838" fill-opacity="0.22"/>
<path d="M781.781 744.982C781.781 743.854 780.514 742.94 778.951 742.94C777.388 742.94 776.121 743.854 776.121 744.982C776.121 746.11 777.388 747.025 778.951 747.025C780.514 747.025 781.781 746.11 781.781 744.982Z" fill="#B13838" fill-opacity="0.22"/>
<path d="M790.387 730.459C791.211 731.803 798.046 743.671 788.094 752.574C781.268 758.681 764.825 762.909 756.25 756.21C751.788 752.724 751.044 748.361 753.131 745.039C753.88 743.846 755.516 742.442 758.26 742.939C759.406 743.148 759.443 744.128 760.025 744.465C760.924 744.983 761.882 745.248 762.961 744.81C765.836 743.643 762.48 740.909 762.48 740.909C762.48 740.909 763.886 740.186 765.895 740.475C767.905 740.765 769.908 742 772.304 740.099C774.088 738.682 773.166 735.884 770.517 734.965C767.031 733.757 760.959 733.801 754.712 735.472C745.323 737.527 731.877 744.519 732.807 762.626C734.951 804.418 805.714 806.065 805.714 806.065L805.654 772.175C800.091 774.715 793.525 776.822 787.096 777.366C769.65 778.845 764.131 774.238 764.131 774.238C764.131 774.238 761.892 773.182 762.359 772.395C762.718 771.789 764.874 772.74 764.874 772.74C764.874 772.74 770.567 775.773 784.64 774.211C791.918 773.403 800.885 767.585 805.689 763.603L805.73 753.836C804.815 754.888 803.646 755.873 802.696 756.725C796.405 762.376 789.971 764.724 789.971 764.724C789.971 764.724 788.399 765.39 787.67 764.701C786.982 764.053 788.598 762.908 788.598 762.908C788.598 762.908 794.869 759.527 799.862 752.383C805.54 744.258 805.67 733.001 805.622 730.459H790.387Z" fill="#B13838" fill-opacity="0.22"/>
<path d="M773.023 711.161C773.023 712.02 772.057 712.717 770.866 712.717C769.675 712.717 768.709 712.02 768.709 711.161C768.709 710.301 769.675 709.604 770.866 709.604C772.057 709.604 773.023 710.301 773.023 711.161Z" fill="#B13838" fill-opacity="0.22"/>
<path d="M781.781 711.55C781.781 712.678 780.514 713.592 778.951 713.592C777.388 713.592 776.121 712.678 776.121 711.55C776.121 710.422 777.388 709.508 778.951 709.508C780.514 709.508 781.781 710.422 781.781 711.55Z" fill="#B13838" fill-opacity="0.22"/>
<path d="M790.387 726.074C791.211 724.73 798.046 712.861 788.094 703.958C781.268 697.851 764.825 693.624 756.25 700.322C751.788 703.808 751.044 708.172 753.131 711.494C753.88 712.686 755.516 714.09 758.26 713.593C759.406 713.385 759.443 712.404 760.025 712.067C760.924 711.549 761.882 711.284 762.961 711.723C765.836 712.89 762.48 715.624 762.48 715.624C762.48 715.624 763.886 716.347 765.895 716.058C767.905 715.768 769.908 714.532 772.304 716.433C774.088 717.85 773.166 720.649 770.517 721.568C767.031 722.776 760.959 722.732 754.712 721.06C745.323 719.006 731.877 712.013 732.807 693.907C734.951 652.115 805.714 650.467 805.714 650.467L805.654 684.357C800.091 681.818 793.525 679.711 787.096 679.167C769.65 677.688 764.131 682.294 764.131 682.294C764.131 682.294 761.892 683.35 762.359 684.137C762.718 684.743 764.874 683.792 764.874 683.792C764.874 683.792 770.567 680.759 784.64 682.322C791.918 683.13 800.885 688.947 805.689 692.93L805.73 702.697C804.815 701.644 803.646 700.66 802.696 699.807C796.405 694.156 789.971 691.809 789.971 691.809C789.971 691.809 788.399 691.143 787.67 691.831C786.982 692.48 788.598 693.624 788.598 693.624C788.598 693.624 794.869 697.006 799.862 704.15C805.54 712.274 805.67 723.531 805.622 726.074H790.387Z" fill="#B13838" fill-opacity="0.22"/>
<path d="M682.446 745.372C682.446 744.512 683.399 743.815 684.574 743.815C685.749 743.815 686.702 744.512 686.702 745.372C686.702 746.231 685.749 746.928 684.574 746.928C683.399 746.928 682.446 746.231 682.446 745.372Z" fill="#B13838" fill-opacity="0.22"/>
<path d="M673.803 744.982C673.803 743.854 675.054 742.94 676.596 742.94C678.138 742.94 679.388 743.854 679.388 744.982C679.388 746.11 678.138 747.025 676.596 747.025C675.054 747.025 673.803 746.11 673.803 744.982Z" fill="#B13838" fill-opacity="0.22"/>
<path d="M665.311 730.459C664.497 731.803 657.753 743.671 667.573 752.574C674.309 758.681 690.535 762.909 698.997 756.21C703.4 752.724 704.134 748.361 702.075 745.039C701.336 743.846 699.721 742.442 697.013 742.939C695.883 743.148 695.846 744.128 695.272 744.465C694.385 744.983 693.44 745.248 692.375 744.81C689.538 743.643 692.849 740.909 692.849 740.909C692.849 740.909 691.462 740.186 689.479 740.475C687.496 740.765 685.52 742 683.155 740.099C681.395 738.682 682.304 735.884 684.919 734.965C688.358 733.757 694.35 733.801 700.515 735.472C709.78 737.527 723.048 744.519 722.131 762.626C720.015 804.418 650.186 806.065 650.186 806.065L650.245 772.175C655.735 774.715 662.214 776.822 668.558 777.366C685.774 778.845 691.221 774.238 691.221 774.238C691.221 774.238 693.43 773.182 692.968 772.395C692.614 771.789 690.487 772.74 690.487 772.74C690.487 772.74 684.869 775.773 670.981 774.211C663.8 773.403 654.952 767.585 650.211 763.603L650.17 753.836C651.073 754.888 652.227 755.873 653.164 756.725C659.372 762.376 665.721 764.724 665.721 764.724C665.721 764.724 667.273 765.39 667.992 764.701C668.671 764.053 667.076 762.908 667.076 762.908C667.076 762.908 660.888 759.527 655.961 752.383C650.358 744.258 650.229 733.001 650.276 730.459H665.311Z" fill="#B13838" fill-opacity="0.22"/>
<path d="M682.446 711.161C682.446 712.02 683.399 712.717 684.574 712.717C685.749 712.717 686.702 712.02 686.702 711.161C686.702 710.301 685.749 709.604 684.574 709.604C683.399 709.604 682.446 710.301 682.446 711.161Z" fill="#B13838" fill-opacity="0.22"/>
<path d="M673.803 711.55C673.803 712.678 675.054 713.592 676.596 713.592C678.138 713.592 679.388 712.678 679.388 711.55C679.388 710.422 678.138 709.508 676.596 709.508C675.054 709.508 673.803 710.422 673.803 711.55Z" fill="#B13838" fill-opacity="0.22"/>
<path d="M665.311 726.074C664.497 724.73 657.753 712.861 667.573 703.958C674.309 697.851 690.535 693.624 698.997 700.322C703.4 703.808 704.134 708.172 702.075 711.494C701.336 712.686 699.721 714.09 697.013 713.593C695.883 713.385 695.846 712.404 695.272 712.067C694.385 711.549 693.44 711.284 692.375 711.723C689.538 712.89 692.849 715.624 692.849 715.624C692.849 715.624 691.462 716.347 689.479 716.058C687.496 715.768 685.52 714.532 683.155 716.433C681.395 717.85 682.304 720.649 684.919 721.568C688.358 722.776 694.35 722.732 700.515 721.06C709.78 719.006 723.048 712.013 722.131 693.907C720.015 652.115 650.186 650.467 650.186 650.467L650.245 684.357C655.735 681.818 662.214 679.711 668.558 679.167C685.774 677.688 691.221 682.294 691.221 682.294C691.221 682.294 693.43 683.35 692.968 684.137C692.614 684.743 690.487 683.792 690.487 683.792C690.487 683.792 684.869 680.759 670.981 682.322C663.8 683.13 654.952 688.947 650.211 692.93L650.17 702.697C651.073 701.644 652.227 700.66 653.164 699.807C659.372 694.156 665.721 691.809 665.721 691.809C665.721 691.809 667.273 691.143 667.992 691.831C668.671 692.48 667.076 693.624 667.076 693.624C667.076 693.624 660.888 697.006 655.961 704.15C650.358 712.274 650.229 723.531 650.276 726.074H665.311Z" fill="#B13838" fill-opacity="0.22"/>
<path d="M683.983 748.042C684.591 748.65 685.767 748.46 686.609 747.618C687.451 746.775 687.641 745.6 687.034 744.992C686.426 744.384 685.25 744.574 684.408 745.417C683.566 746.259 683.376 747.434 683.983 748.042Z" fill="#B13838"/>
<path d="M678.066 754.51C678.864 755.308 680.406 755.058 681.511 753.953C682.616 752.848 682.866 751.306 682.068 750.508C681.271 749.711 679.728 749.96 678.623 751.065C677.518 752.17 677.269 753.713 678.066 754.51Z" fill="#B13838"/>
<path d="M682.25 770.865C680.717 770.498 667.492 766.939 668.233 753.606C668.742 744.461 677.38 729.845 688.18 728.518C693.8 727.828 697.411 730.388 698.285 734.212C698.599 735.585 698.434 737.735 696.142 739.323C695.185 739.986 694.465 739.319 693.815 739.493C692.814 739.762 691.948 740.252 691.496 741.325C690.288 744.183 694.594 743.743 694.594 743.743C694.594 743.743 694.111 745.249 692.486 746.465C690.86 747.681 688.57 748.223 688.22 751.262C687.96 753.525 690.591 754.852 693.114 753.629C696.433 752.018 700.696 747.694 703.931 742.094C709.118 734.002 713.681 719.551 700.22 707.405C669.152 679.369 617.95 728.241 617.95 728.241L641.956 752.163C644.095 746.433 647.248 740.301 651.409 735.37C662.699 721.988 669.859 721.343 669.859 721.343C669.859 721.343 672.189 720.506 672.415 721.394C672.59 722.076 670.393 722.928 670.393 722.928C670.393 722.928 664.223 724.808 655.376 735.865C650.802 741.582 648.575 752.036 647.994 758.249L654.871 765.185C654.774 763.793 654.904 762.271 654.973 760.996C655.426 752.552 658.315 746.343 658.315 746.343C658.315 746.343 658.956 744.76 659.958 744.731C660.903 744.703 660.57 746.656 660.57 746.656C660.57 746.656 658.527 753.481 660.048 762.063C661.778 771.822 669.645 779.875 671.477 781.638L682.25 770.865Z" fill="#B13838"/>
<path d="M708.174 772.233C707.566 771.625 707.756 770.45 708.599 769.607C709.441 768.765 710.617 768.575 711.224 769.183C711.832 769.791 711.642 770.966 710.8 771.808C709.958 772.651 708.782 772.841 708.174 772.233Z" fill="#B13838"/>
<path d="M701.706 778.15C700.909 777.353 701.158 775.81 702.263 774.705C703.368 773.6 704.911 773.351 705.708 774.148C706.506 774.946 706.256 776.488 705.151 777.593C704.046 778.698 702.504 778.948 701.706 778.15Z" fill="#B13838"/>
<path d="M685.351 773.966C685.718 775.499 689.278 788.724 702.61 787.983C711.755 787.474 726.372 778.837 727.698 768.037C728.389 762.416 725.829 758.805 722.005 757.932C720.632 757.618 718.482 757.782 716.893 760.074C716.23 761.031 716.897 761.751 716.724 762.401C716.455 763.403 715.965 764.268 714.892 764.721C712.034 765.928 712.473 761.622 712.473 761.622C712.473 761.622 710.968 762.105 709.751 763.73C708.535 765.356 707.993 767.646 704.954 767.996C702.691 768.256 701.364 765.625 702.588 763.102C704.198 759.783 708.523 755.521 714.122 752.285C722.214 747.099 736.665 742.536 748.812 755.996C776.847 787.064 727.975 838.266 727.975 838.266L704.053 814.26C709.783 812.122 715.915 808.969 720.846 804.808C734.228 793.517 734.874 786.357 734.874 786.357C734.874 786.357 735.71 784.027 734.823 783.801C734.14 783.626 733.289 785.824 733.289 785.824C733.289 785.824 731.408 791.993 720.352 800.84C714.635 805.414 704.18 807.641 697.967 808.222L691.032 801.345C692.423 801.442 693.946 801.312 695.22 801.243C703.664 800.791 709.874 797.901 709.874 797.901C709.874 797.901 711.457 797.26 711.485 796.258C711.513 795.313 709.561 795.646 709.561 795.646C709.561 795.646 702.736 797.69 694.153 796.169C684.394 794.439 676.342 786.571 674.578 784.739L685.351 773.966Z" fill="#B13838"/>
<path d="M748.031 683.994C748.639 684.602 748.458 685.769 747.627 686.6C746.796 687.431 745.629 687.612 745.021 687.004C744.413 686.396 744.594 685.23 745.426 684.399C746.257 683.568 747.423 683.386 748.031 683.994Z" fill="#B13838"/>
<path d="M754.417 678.159C755.215 678.956 754.977 680.487 753.887 681.577C752.796 682.668 751.266 682.905 750.468 682.108C749.671 681.31 749.908 679.78 750.999 678.689C752.089 677.599 753.62 677.361 754.417 678.159Z" fill="#B13838"/>
<path d="M770.692 682.423C770.317 680.898 766.694 667.736 753.454 668.385C744.373 668.83 729.91 677.314 728.664 688.034C728.015 693.613 730.582 697.217 734.386 698.11C735.752 698.431 737.887 698.282 739.45 696.015C740.102 695.069 739.435 694.349 739.603 693.705C739.863 692.712 740.345 691.855 741.408 691.413C744.239 690.232 743.831 694.507 743.831 694.507C743.831 694.507 745.323 694.037 746.521 692.43C747.718 690.823 748.241 688.552 751.258 688.224C753.504 687.981 754.84 690.603 753.641 693.102C752.063 696.388 747.795 700.594 742.254 703.771C734.25 708.87 719.924 713.308 707.769 699.856C679.713 668.808 727.925 618.266 727.925 618.266L751.848 642.272C746.17 644.358 740.099 647.45 735.228 651.551C722.009 662.679 721.415 669.787 721.415 669.787C721.415 669.787 720.599 672.097 721.482 672.327C722.161 672.505 722.993 670.328 722.993 670.328C722.993 670.328 724.82 664.211 735.745 655.496C741.394 650.989 751.765 648.846 757.933 648.31L764.869 655.187C763.486 655.082 761.974 655.201 760.708 655.261C752.323 655.655 746.173 658.484 746.173 658.484C746.173 658.484 744.605 659.111 744.584 660.106C744.562 661.044 746.499 660.726 746.499 660.726C746.499 660.726 753.266 658.741 761.802 660.309C771.508 662.092 779.559 669.961 781.323 671.792L770.692 682.423Z" fill="#B13838"/>
<path d="M772.222 708.185C771.614 707.577 770.448 707.758 769.616 708.589C768.785 709.421 768.604 710.587 769.212 711.195C769.82 711.803 770.986 711.622 771.818 710.791C772.649 709.96 772.83 708.793 772.222 708.185Z" fill="#B13838"/>
<path d="M778.058 701.799C777.26 701.001 775.73 701.239 774.639 702.329C773.548 703.42 773.311 704.951 774.108 705.748C774.906 706.546 776.436 706.308 777.527 705.218C778.618 704.127 778.855 702.596 778.058 701.799Z" fill="#B13838"/>
<path d="M773.793 685.524C775.319 685.899 788.48 689.522 787.831 702.762C787.386 711.843 778.902 726.306 768.182 727.553C762.604 728.201 758.999 725.635 758.106 721.83C757.785 720.464 757.935 718.329 760.201 716.766C761.148 716.114 761.867 716.781 762.511 716.613C763.505 716.353 764.361 715.872 764.804 714.809C765.984 711.978 761.71 712.386 761.71 712.386C761.71 712.386 762.179 710.894 763.786 709.696C765.393 708.499 767.665 707.975 767.992 704.959C768.235 702.712 765.613 701.376 763.115 702.575C759.828 704.153 755.622 708.421 752.445 713.962C747.346 721.966 742.909 736.293 756.361 748.448C787.408 776.503 837.95 728.291 837.95 728.291L813.944 704.369C811.858 710.046 808.767 716.118 804.665 720.988C793.538 734.207 786.429 734.802 786.429 734.802C786.429 734.802 784.12 735.617 783.89 734.734C783.712 734.055 785.889 733.224 785.889 733.224C785.889 733.224 792.005 731.396 800.721 720.471C805.227 714.822 807.371 704.451 807.906 698.283L801.029 691.348C801.135 692.731 801.015 694.242 800.956 695.508C800.562 703.893 797.732 710.043 797.732 710.043C797.732 710.043 797.106 711.611 796.11 711.633C795.172 711.654 795.49 709.717 795.49 709.717C795.49 709.717 797.475 702.951 795.907 694.415C794.124 684.708 786.255 676.657 784.424 674.893L773.793 685.524Z" fill="#B13838"/>
<path d="M747.726 772.233C748.334 771.625 748.144 770.45 747.302 769.607C746.459 768.765 745.284 768.575 744.676 769.183C744.068 769.791 744.258 770.966 745.1 771.808C745.943 772.651 747.118 772.841 747.726 772.233Z" fill="#B13838" fill-opacity="0.22"/>
<path d="M754.194 778.15C754.991 777.353 754.742 775.81 753.637 774.705C752.532 773.6 750.989 773.351 750.192 774.148C749.394 774.946 749.644 776.488 750.749 777.593C751.854 778.698 753.396 778.948 754.194 778.15Z" fill="#B13838" fill-opacity="0.22"/>
<path d="M770.549 773.966C770.182 775.499 766.623 788.724 753.29 787.983C744.145 787.474 729.529 778.837 728.202 768.037C727.512 762.416 730.071 758.805 733.896 757.932C735.268 757.618 737.418 757.782 739.007 760.074C739.67 761.031 739.003 761.751 739.176 762.401C739.445 763.403 739.935 764.268 741.008 764.721C743.867 765.928 743.427 761.622 743.427 761.622C743.427 761.622 744.932 762.105 746.149 763.73C747.365 765.356 747.907 767.646 750.946 767.996C753.209 768.256 754.536 765.625 753.313 763.102C751.702 759.783 747.377 755.521 741.778 752.285C733.686 747.099 719.235 742.536 707.088 755.996C679.053 787.064 727.925 838.266 727.925 838.266L751.847 814.26C746.117 812.122 739.985 808.969 735.054 804.808C721.672 793.517 721.026 786.357 721.026 786.357C721.026 786.357 720.19 784.027 721.077 783.801C721.76 783.626 722.611 785.824 722.611 785.824C722.611 785.824 724.492 791.993 735.549 800.84C741.266 805.414 751.72 807.641 757.933 808.222L764.869 801.345C763.477 801.442 761.955 801.312 760.68 801.243C752.236 800.791 746.026 797.901 746.026 797.901C746.026 797.901 744.443 797.26 744.415 796.258C744.387 795.313 746.339 795.646 746.339 795.646C746.339 795.646 753.165 797.69 761.747 796.169C771.506 794.439 779.558 786.571 781.322 784.739L770.549 773.966Z" fill="#B13838" fill-opacity="0.22"/>
<path d="M771.917 748.042C771.309 748.65 770.133 748.46 769.291 747.618C768.449 746.775 768.259 745.6 768.867 744.992C769.474 744.384 770.65 744.574 771.492 745.417C772.335 746.259 772.525 747.434 771.917 748.042Z" fill="#B13838" fill-opacity="0.22"/>
<path d="M777.834 754.51C777.037 755.308 775.494 755.058 774.389 753.953C773.284 752.848 773.035 751.306 773.832 750.508C774.63 749.711 776.172 749.96 777.277 751.065C778.382 752.17 778.632 753.713 777.834 754.51Z" fill="#B13838" fill-opacity="0.22"/>
<path d="M773.65 770.865C775.183 770.498 788.408 766.939 787.667 753.606C787.158 744.461 778.521 729.845 767.721 728.518C762.1 727.828 758.489 730.388 757.615 734.212C757.302 735.585 757.466 737.735 759.758 739.323C760.715 739.986 761.435 739.319 762.085 739.493C763.087 739.762 763.952 740.252 764.404 741.325C765.612 744.183 761.306 743.743 761.306 743.743C761.306 743.743 761.789 745.249 763.414 746.465C765.04 747.681 767.33 748.223 767.68 751.262C767.94 753.525 765.309 754.852 762.786 753.629C759.467 752.018 755.204 747.694 751.969 742.094C746.783 734.002 742.22 719.551 755.68 707.405C786.748 679.369 837.95 728.241 837.95 728.241L813.944 752.163C811.805 746.433 808.653 740.301 804.492 735.37C793.201 721.989 786.041 721.343 786.041 721.343C786.041 721.343 783.711 720.506 783.485 721.394C783.31 722.076 785.507 722.928 785.507 722.928C785.507 722.928 791.677 724.808 800.524 735.865C805.098 741.582 807.325 752.036 807.906 758.249L801.029 765.185C801.126 763.793 800.996 762.271 800.927 760.996C800.475 752.552 797.585 746.343 797.585 746.343C797.585 746.343 796.944 744.76 795.942 744.731C794.997 744.703 795.33 746.656 795.33 746.656C795.33 746.656 797.373 753.481 795.852 762.063C794.123 771.822 786.255 779.875 784.423 781.638L773.65 770.865Z" fill="#B13838" fill-opacity="0.22"/>
<path d="M683.678 708.185C684.286 707.577 685.453 707.758 686.284 708.589C687.115 709.421 687.296 710.587 686.688 711.195C686.08 711.803 684.914 711.622 684.083 710.791C683.251 709.96 683.07 708.793 683.678 708.185Z" fill="#B13838" fill-opacity="0.22"/>
<path d="M677.843 701.799C678.64 701.001 680.171 701.239 681.261 702.329C682.352 703.42 682.589 704.951 681.792 705.748C680.994 706.546 679.464 706.308 678.373 705.218C677.283 704.127 677.045 702.596 677.843 701.799Z" fill="#B13838" fill-opacity="0.22"/>
<path d="M682.107 685.524C680.582 685.899 667.42 689.522 668.069 702.762C668.514 711.843 676.998 726.306 687.718 727.553C693.297 728.201 696.901 725.635 697.794 721.83C698.115 720.464 697.966 718.329 695.699 716.766C694.753 716.114 694.033 716.781 693.389 716.613C692.396 716.353 691.539 715.872 691.097 714.809C689.916 711.978 694.19 712.386 694.19 712.386C694.19 712.386 693.721 710.894 692.114 709.696C690.507 708.499 688.236 707.975 687.908 704.959C687.665 702.712 690.287 701.376 692.786 702.575C696.072 704.153 700.278 708.421 703.455 713.962C708.554 721.966 712.991 736.293 699.539 748.448C668.492 776.503 617.95 728.291 617.95 728.291L641.956 704.369C644.042 710.046 647.134 716.118 651.235 720.988C662.362 734.207 669.471 734.802 669.471 734.802C669.471 734.802 671.78 735.617 672.01 734.734C672.189 734.055 670.012 733.224 670.012 733.224C670.012 733.224 663.895 731.396 655.18 720.471C650.673 714.822 648.53 704.451 647.994 698.283L654.871 691.348C654.766 692.731 654.885 694.242 654.945 695.508C655.339 703.893 658.168 710.043 658.168 710.043C658.168 710.043 658.795 711.611 659.79 711.633C660.728 711.654 660.41 709.717 660.41 709.717C660.41 709.717 658.425 702.951 659.993 694.415C661.776 684.708 669.645 676.657 671.476 674.893L682.107 685.524Z" fill="#B13838" fill-opacity="0.22"/>
<path d="M707.869 683.994C707.261 684.602 707.442 685.769 708.273 686.6C709.104 687.431 710.271 687.612 710.879 687.004C711.487 686.396 711.306 685.23 710.475 684.399C709.643 683.568 708.477 683.386 707.869 683.994Z" fill="#B13838" fill-opacity="0.22"/>
<path d="M701.483 678.159C700.685 678.956 700.923 680.487 702.013 681.577C703.104 682.668 704.634 682.905 705.432 682.108C706.229 681.31 705.992 679.78 704.901 678.689C703.811 677.599 702.28 677.361 701.483 678.159Z" fill="#B13838" fill-opacity="0.22"/>
<path d="M685.208 682.423C685.583 680.898 689.206 667.736 702.446 668.385C711.527 668.83 725.99 677.314 727.237 688.034C727.885 693.613 725.319 697.217 721.514 698.11C720.148 698.431 718.013 698.282 716.45 696.015C715.798 695.069 716.465 694.349 716.297 693.705C716.037 692.712 715.556 691.855 714.493 691.413C711.661 690.232 712.07 694.507 712.07 694.507C712.07 694.507 710.577 694.037 709.38 692.43C708.183 690.823 707.659 688.552 704.642 688.224C702.396 687.981 701.06 690.603 702.259 693.102C703.837 696.388 708.105 700.594 713.646 703.771C721.65 708.87 735.976 713.308 748.131 699.856C776.187 668.808 727.975 618.266 727.975 618.266L704.053 642.272C709.73 644.358 715.801 647.45 720.672 651.551C733.891 662.679 734.486 669.787 734.486 669.787C734.486 669.787 735.301 672.097 734.418 672.327C733.739 672.505 732.908 670.328 732.908 670.328C732.908 670.328 731.08 664.211 720.155 655.496C714.506 650.989 704.135 648.846 697.967 648.31L691.032 655.187C692.414 655.082 693.926 655.201 695.192 655.261C703.577 655.655 709.727 658.484 709.727 658.484C709.727 658.484 711.295 659.111 711.317 660.106C711.338 661.044 709.401 660.726 709.401 660.726C709.401 660.726 702.634 658.741 694.099 660.309C684.392 662.092 676.341 669.961 674.577 671.792L685.208 682.423Z" fill="#B13838" fill-opacity="0.22"/>
<path d="M747.726 772.233C748.334 771.625 748.144 770.45 747.302 769.607C746.459 768.765 745.284 768.575 744.676 769.183C744.068 769.791 744.258 770.966 745.1 771.808C745.943 772.651 747.118 772.841 747.726 772.233Z" fill="#B13838"/>
<path d="M754.194 778.15C754.991 777.353 754.742 775.81 753.637 774.705C752.532 773.6 750.989 773.351 750.192 774.148C749.394 774.946 749.644 776.488 750.749 777.593C751.854 778.698 753.396 778.948 754.194 778.15Z" fill="#B13838"/>
<path d="M770.549 773.966C770.182 775.499 766.623 788.724 753.29 787.983C744.145 787.474 729.529 778.837 728.202 768.037C727.512 762.416 730.071 758.805 733.896 757.932C735.268 757.618 737.418 757.782 739.007 760.074C739.67 761.031 739.003 761.751 739.176 762.401C739.445 763.403 739.935 764.268 741.008 764.721C743.867 765.928 743.427 761.622 743.427 761.622C743.427 761.622 744.932 762.105 746.149 763.73C747.365 765.356 747.907 767.646 750.946 767.996C753.209 768.256 754.536 765.625 753.313 763.102C751.702 759.783 747.377 755.521 741.778 752.285C733.686 747.099 719.235 742.536 707.088 755.996C679.053 787.064 727.925 838.266 727.925 838.266L751.847 814.26C746.117 812.122 739.985 808.969 735.054 804.808C721.672 793.517 721.026 786.357 721.026 786.357C721.026 786.357 720.19 784.027 721.077 783.801C721.76 783.626 722.611 785.824 722.611 785.824C722.611 785.824 724.492 791.993 735.549 800.84C741.266 805.414 751.72 807.641 757.933 808.222L764.869 801.345C763.477 801.442 761.955 801.312 760.68 801.243C752.236 800.791 746.026 797.901 746.026 797.901C746.026 797.901 744.443 797.26 744.415 796.258C744.387 795.313 746.339 795.646 746.339 795.646C746.339 795.646 753.165 797.69 761.747 796.169C771.506 794.439 779.558 786.571 781.322 784.739L770.549 773.966Z" fill="#B13838"/>
<path d="M771.917 748.042C771.309 748.65 770.133 748.46 769.291 747.618C768.449 746.775 768.259 745.6 768.867 744.992C769.474 744.384 770.65 744.574 771.492 745.417C772.335 746.259 772.525 747.434 771.917 748.042Z" fill="#B13838"/>
<path d="M777.834 754.51C777.037 755.308 775.494 755.058 774.389 753.953C773.284 752.848 773.035 751.306 773.832 750.508C774.63 749.711 776.172 749.96 777.277 751.065C778.382 752.17 778.632 753.713 777.834 754.51Z" fill="#B13838"/>
<path d="M773.65 770.865C775.183 770.498 788.408 766.939 787.667 753.606C787.158 744.461 778.521 729.845 767.721 728.518C762.1 727.828 758.489 730.388 757.615 734.212C757.302 735.585 757.466 737.735 759.758 739.323C760.715 739.986 761.435 739.319 762.085 739.493C763.087 739.762 763.952 740.252 764.404 741.325C765.612 744.183 761.306 743.743 761.306 743.743C761.306 743.743 761.789 745.249 763.414 746.465C765.04 747.681 767.33 748.223 767.68 751.262C767.94 753.525 765.309 754.852 762.786 753.629C759.467 752.018 755.204 747.694 751.969 742.094C746.783 734.002 742.22 719.551 755.68 707.405C786.748 679.369 837.95 728.241 837.95 728.241L813.944 752.163C811.805 746.433 808.653 740.301 804.492 735.37C793.201 721.989 786.041 721.343 786.041 721.343C786.041 721.343 783.711 720.506 783.485 721.394C783.31 722.076 785.507 722.928 785.507 722.928C785.507 722.928 791.677 724.808 800.524 735.865C805.098 741.582 807.325 752.036 807.906 758.249L801.029 765.185C801.126 763.793 800.996 762.271 800.927 760.996C800.475 752.552 797.585 746.343 797.585 746.343C797.585 746.343 796.944 744.76 795.942 744.731C794.997 744.703 795.33 746.656 795.33 746.656C795.33 746.656 797.373 753.481 795.852 762.063C794.123 771.822 786.255 779.875 784.423 781.638L773.65 770.865Z" fill="#B13838"/>
<path d="M683.678 708.185C684.286 707.577 685.453 707.758 686.284 708.589C687.115 709.421 687.296 710.587 686.688 711.195C686.08 711.803 684.914 711.622 684.083 710.791C683.251 709.96 683.07 708.793 683.678 708.185Z" fill="#B13838"/>
<path d="M677.843 701.799C678.64 701.001 680.171 701.239 681.261 702.329C682.352 703.42 682.589 704.951 681.792 705.748C680.994 706.546 679.464 706.308 678.373 705.218C677.283 704.127 677.045 702.596 677.843 701.799Z" fill="#B13838"/>
<path d="M682.107 685.524C680.582 685.899 667.42 689.522 668.069 702.762C668.514 711.843 676.998 726.306 687.718 727.553C693.297 728.201 696.901 725.635 697.794 721.83C698.115 720.464 697.966 718.329 695.699 716.766C694.753 716.114 694.033 716.781 693.389 716.613C692.396 716.353 691.539 715.872 691.097 714.809C689.916 711.978 694.19 712.386 694.19 712.386C694.19 712.386 693.721 710.894 692.114 709.696C690.507 708.499 688.236 707.975 687.908 704.959C687.665 702.712 690.287 701.376 692.786 702.575C696.072 704.153 700.278 708.421 703.455 713.962C708.554 721.966 712.991 736.293 699.539 748.448C668.492 776.503 617.95 728.291 617.95 728.291L641.956 704.369C644.042 710.046 647.134 716.118 651.235 720.988C662.362 734.207 669.471 734.802 669.471 734.802C669.471 734.802 671.78 735.617 672.01 734.734C672.189 734.055 670.012 733.224 670.012 733.224C670.012 733.224 663.895 731.396 655.18 720.471C650.673 714.822 648.53 704.451 647.994 698.283L654.871 691.348C654.766 692.731 654.885 694.242 654.945 695.508C655.339 703.893 658.168 710.043 658.168 710.043C658.168 710.043 658.795 711.611 659.79 711.633C660.728 711.654 660.41 709.717 660.41 709.717C660.41 709.717 658.425 702.951 659.993 694.415C661.776 684.708 669.645 676.657 671.476 674.893L682.107 685.524Z" fill="#B13838"/>
<path d="M707.869 683.994C707.261 684.602 707.442 685.769 708.273 686.6C709.104 687.431 710.271 687.612 710.879 687.004C711.487 686.396 711.306 685.23 710.475 684.399C709.643 683.568 708.477 683.386 707.869 683.994Z" fill="#B13838"/>
<path d="M701.483 678.159C700.685 678.956 700.923 680.487 702.013 681.577C703.104 682.668 704.634 682.905 705.432 682.108C706.229 681.31 705.992 679.78 704.901 678.689C703.811 677.599 702.28 677.361 701.483 678.159Z" fill="#B13838"/>
<path d="M685.208 682.423C685.583 680.898 689.206 667.736 702.446 668.385C711.527 668.83 725.99 677.314 727.237 688.034C727.885 693.613 725.319 697.217 721.514 698.11C720.148 698.431 718.013 698.282 716.45 696.015C715.798 695.069 716.465 694.349 716.297 693.705C716.037 692.712 715.556 691.855 714.493 691.413C711.661 690.232 712.07 694.507 712.07 694.507C712.07 694.507 710.577 694.037 709.38 692.43C708.183 690.823 707.659 688.552 704.642 688.224C702.396 687.981 701.06 690.603 702.259 693.102C703.837 696.388 708.105 700.594 713.646 703.771C721.65 708.87 735.976 713.308 748.131 699.856C776.187 668.808 727.975 618.266 727.975 618.266L704.053 642.272C709.73 644.358 715.801 647.45 720.672 651.551C733.891 662.679 734.486 669.787 734.486 669.787C734.486 669.787 735.301 672.097 734.418 672.327C733.739 672.505 732.908 670.328 732.908 670.328C732.908 670.328 731.08 664.211 720.155 655.496C714.506 650.989 704.135 648.846 697.967 648.31L691.032 655.187C692.414 655.082 693.926 655.201 695.192 655.261C703.577 655.655 709.727 658.484 709.727 658.484C709.727 658.484 711.295 659.111 711.317 660.106C711.338 661.044 709.401 660.726 709.401 660.726C709.401 660.726 702.634 658.741 694.099 660.309C684.392 662.092 676.341 669.961 674.577 671.792L685.208 682.423Z" fill="#B13838"/>
<path d="M771.917 708.49C771.309 707.882 770.133 708.072 769.291 708.915C768.449 709.757 768.259 710.933 768.867 711.541C769.474 712.148 770.65 711.958 771.492 711.116C772.335 710.274 772.525 709.098 771.917 708.49Z" fill="#B13838" fill-opacity="0.22"/>
<path d="M777.834 702.022C777.037 701.225 775.494 701.474 774.389 702.579C773.284 703.684 773.035 705.227 773.832 706.024C774.63 706.822 776.172 706.573 777.277 705.467C778.382 704.362 778.632 702.82 777.834 702.022Z" fill="#B13838" fill-opacity="0.22"/>
<path d="M773.65 685.667C775.183 686.034 788.408 689.594 787.667 702.927C787.158 712.071 778.521 726.688 767.721 728.015C762.1 728.705 758.489 726.145 757.615 722.321C757.302 720.948 757.466 718.798 759.758 717.209C760.715 716.546 761.435 717.213 762.085 717.04C763.087 716.771 763.952 716.281 764.404 715.208C765.612 712.35 761.306 712.789 761.306 712.789C761.306 712.789 761.789 711.284 763.414 710.068C765.04 708.852 767.33 708.309 767.68 705.271C767.94 703.007 765.309 701.68 762.786 702.904C759.467 704.514 755.204 708.839 751.969 714.438C746.783 722.53 742.22 736.982 755.68 749.128C786.748 777.163 837.95 728.291 837.95 728.291L813.944 704.369C811.806 710.098 808.653 716.232 804.492 721.162C793.201 734.544 786.041 735.19 786.041 735.19C786.041 735.19 783.711 736.026 783.485 735.139C783.31 734.457 785.507 733.605 785.507 733.605C785.507 733.605 791.677 731.724 800.524 720.668C805.098 714.951 807.326 704.496 807.906 698.283L801.029 691.348C801.126 692.739 800.996 694.262 800.927 695.536C800.474 703.98 797.585 710.19 797.585 710.19C797.585 710.19 796.944 711.773 795.942 711.801C794.997 711.829 795.33 709.877 795.33 709.877C795.33 709.877 797.373 703.052 795.852 694.469C794.123 684.71 786.255 676.658 784.423 674.894L773.65 685.667Z" fill="#B13838" fill-opacity="0.22"/>
<path d="M747.726 684.3C748.334 684.907 748.144 686.083 747.302 686.925C746.459 687.768 745.284 687.958 744.676 687.35C744.068 686.742 744.258 685.566 745.1 684.724C745.943 683.882 747.118 683.692 747.726 684.3Z" fill="#B13838" fill-opacity="0.22"/>
<path d="M754.194 678.382C754.991 679.18 754.742 680.722 753.637 681.827C752.532 682.932 750.989 683.182 750.192 682.384C749.394 681.587 749.644 680.044 750.749 678.939C751.854 677.834 753.396 677.585 754.194 678.382Z" fill="#B13838" fill-opacity="0.22"/>
<path d="M770.549 682.567C770.182 681.033 766.623 667.808 753.29 668.549C744.145 669.058 729.529 677.696 728.202 688.496C727.512 694.116 730.071 697.727 733.896 698.601C735.268 698.915 737.418 698.75 739.007 696.458C739.67 695.501 739.003 694.781 739.176 694.131C739.445 693.13 739.935 692.265 741.008 691.812C743.867 690.604 743.427 694.91 743.427 694.91C743.427 694.91 744.932 694.427 746.149 692.802C747.365 691.176 747.907 688.886 750.946 688.536C753.209 688.277 754.536 690.907 753.313 693.43C751.702 696.749 747.377 701.012 741.778 704.248C733.686 709.434 719.235 713.997 707.088 700.536C679.053 669.469 727.925 618.266 727.925 618.266L751.848 642.272C746.118 644.41 739.985 647.564 735.054 651.725C721.672 663.015 721.026 670.176 721.026 670.176C721.026 670.176 720.19 672.506 721.077 672.731C721.76 672.906 722.611 670.709 722.611 670.709C722.611 670.709 724.492 664.539 735.549 655.693C741.266 651.118 751.72 648.891 757.933 648.31L764.869 655.187C763.477 655.09 761.955 655.221 760.68 655.289C752.236 655.742 746.026 658.632 746.026 658.632C746.026 658.632 744.443 659.273 744.415 660.274C744.387 661.219 746.339 660.886 746.339 660.886C746.339 660.886 753.165 658.843 761.747 660.364C771.506 662.094 779.558 669.961 781.322 671.793L770.549 682.567Z" fill="#B13838" fill-opacity="0.22"/>
<path d="M707.869 772.538C707.261 771.93 707.442 770.764 708.273 769.933C709.104 769.101 710.271 768.92 710.879 769.528C711.487 770.136 711.306 771.303 710.475 772.134C709.643 772.965 708.477 773.146 707.869 772.538Z" fill="#B13838" fill-opacity="0.22"/>
<path d="M701.483 778.374C700.685 777.576 700.923 776.046 702.013 774.955C703.104 773.865 704.634 773.627 705.432 774.425C706.229 775.222 705.992 776.753 704.901 777.843C703.811 778.934 702.28 779.171 701.483 778.374Z" fill="#B13838" fill-opacity="0.22"/>
<path d="M685.208 774.109C685.583 775.635 689.206 788.796 702.446 788.148C711.527 787.702 725.99 779.218 727.237 768.498C727.885 762.92 725.319 759.315 721.514 758.422C720.148 758.102 718.013 758.251 716.45 760.517C715.798 761.464 716.465 762.183 716.297 762.828C716.037 763.821 715.556 764.677 714.493 765.12C711.661 766.3 712.07 762.026 712.07 762.026C712.07 762.026 710.577 762.496 709.38 764.102C708.183 765.709 707.659 767.981 704.642 768.308C702.396 768.551 701.06 765.929 702.259 763.431C703.837 760.144 708.105 755.938 713.646 752.761C721.65 747.662 735.976 743.225 748.131 756.677C776.187 787.724 727.975 838.266 727.975 838.266L704.053 814.26C709.731 812.173 715.801 809.083 720.672 804.982C733.891 793.854 734.486 786.745 734.486 786.745C734.486 786.745 735.301 784.436 734.418 784.206C733.739 784.028 732.908 786.205 732.908 786.205C732.908 786.205 731.08 792.322 720.155 801.037C714.506 805.543 704.136 807.686 697.967 808.222L691.032 801.345C692.414 801.451 693.926 801.331 695.192 801.272C703.577 800.878 709.727 798.048 709.727 798.048C709.727 798.048 711.295 797.422 711.317 796.427C711.338 795.488 709.401 795.806 709.401 795.806C709.401 795.806 702.634 797.791 694.099 796.223C684.392 794.441 676.341 786.572 674.577 784.74L685.208 774.109Z" fill="#B13838" fill-opacity="0.22"/>
<path d="M683.678 748.347C684.286 748.955 685.453 748.774 686.284 747.943C687.115 747.112 687.296 745.945 686.688 745.337C686.08 744.73 684.914 744.911 684.083 745.742C683.251 746.573 683.07 747.74 683.678 748.347Z" fill="#B13838" fill-opacity="0.22"/>
<path d="M677.843 754.734C678.64 755.531 680.171 755.294 681.261 754.203C682.352 753.113 682.589 751.582 681.792 750.784C680.994 749.987 679.464 750.224 678.373 751.315C677.283 752.405 677.045 753.936 677.843 754.734Z" fill="#B13838" fill-opacity="0.22"/>
<path d="M682.107 771.008C680.582 770.634 667.42 767.011 668.069 753.771C668.514 744.689 676.998 730.226 687.718 728.98C693.297 728.331 696.901 730.898 697.794 734.703C698.115 736.068 697.966 738.203 695.699 739.766C694.753 740.418 694.033 739.751 693.389 739.919C692.396 740.18 691.539 740.661 691.097 741.724C689.916 744.555 694.19 744.147 694.19 744.147C694.19 744.147 693.721 745.639 692.114 746.837C690.507 748.034 688.236 748.558 687.908 751.574C687.665 753.821 690.287 755.156 692.786 753.957C696.072 752.379 700.278 748.111 703.455 742.57C708.554 734.566 712.991 720.24 699.539 708.085C668.492 680.03 617.95 728.241 617.95 728.241L641.956 752.163C644.043 746.485 647.134 740.415 651.235 735.544C662.362 722.325 669.471 721.731 669.471 721.731C669.471 721.731 671.78 720.915 672.01 721.798C672.189 722.477 670.012 723.309 670.012 723.309C670.012 723.309 663.895 725.137 655.18 736.062C650.673 741.711 648.53 752.081 647.994 758.249L654.871 765.185C654.766 763.802 654.885 762.29 654.945 761.025C655.339 752.639 658.168 746.49 658.168 746.49C658.168 746.49 658.795 744.921 659.79 744.9C660.728 744.878 660.41 746.815 660.41 746.815C660.41 746.815 658.425 753.582 659.993 762.118C661.776 771.824 669.645 779.875 671.476 781.639L682.107 771.008Z" fill="#B13838" fill-opacity="0.22"/>
</svg>
