<svg width="1455" height="1456" viewBox="0 0 1455 1456" fill="none" xmlns="http://www.w3.org/2000/svg">
<path d="M614.379 1026.26C620.064 1026.26 624.672 1019.87 624.672 1011.99C624.672 1004.12 620.064 997.732 614.379 997.732C608.694 997.732 604.085 1004.12 604.085 1011.99C604.085 1019.87 608.694 1026.26 614.379 1026.26Z" fill="#5BD6BF"/>
<path d="M616.953 1084.17C624.412 1084.17 630.459 1075.8 630.459 1065.46C630.459 1055.12 624.412 1046.75 616.953 1046.75C609.494 1046.75 603.448 1055.12 603.448 1065.46C603.448 1075.8 609.494 1084.17 616.953 1084.17Z" fill="#5BD6BF"/>
<path d="M713 1141.09C704.114 1146.54 625.625 1191.74 566.745 1125.93C526.362 1080.78 498.403 972.045 542.702 915.337C565.756 885.827 594.613 880.91 616.581 894.708C624.468 899.66 633.752 910.483 630.464 928.632C629.087 936.206 622.602 936.453 620.374 940.303C616.948 946.244 615.194 952.582 618.095 959.717C625.814 978.728 643.893 956.538 643.893 956.538C643.893 956.538 648.675 965.835 646.763 979.123C644.846 992.412 636.673 1005.66 649.246 1021.5C658.616 1033.3 677.123 1027.21 683.2 1009.68C691.189 986.633 690.899 946.478 679.846 905.163C666.259 843.072 620.017 754.156 500.274 760.302C223.895 774.481 213 1242.45 213 1242.45L437.121 1242.06C420.327 1205.26 406.394 1161.84 402.794 1119.33C393.016 1003.96 423.478 967.453 423.478 967.453C423.478 967.453 430.463 952.645 435.668 955.739C439.675 958.113 433.384 972.37 433.384 972.37C433.384 972.37 413.327 1010.02 423.662 1103.09C429.005 1151.21 467.476 1210.51 493.814 1242.28L558.404 1242.56C551.445 1236.5 544.935 1228.77 539.296 1222.49C501.925 1180.89 486.401 1138.34 486.401 1138.34C486.401 1138.34 481.996 1127.94 486.549 1123.12C490.837 1118.57 498.408 1129.26 498.408 1129.26C498.408 1129.26 520.769 1170.73 568.015 1203.75C621.741 1241.3 696.186 1242.16 713 1241.84V1141.09Z" fill="#5BD6BF"/>
<path d="M840.621 1026.26C834.936 1026.26 830.328 1019.87 830.328 1011.99C830.328 1004.12 834.936 997.732 840.621 997.732C846.306 997.732 850.915 1004.12 850.915 1011.99C850.915 1019.87 846.306 1026.26 840.621 1026.26Z" fill="#5BD6BF"/>
<path d="M838.047 1084.17C830.588 1084.17 824.541 1075.8 824.541 1065.46C824.541 1055.12 830.588 1046.75 838.047 1046.75C845.506 1046.75 851.552 1055.12 851.552 1065.46C851.552 1075.8 845.506 1084.17 838.047 1084.17Z" fill="#5BD6BF"/>
<path d="M742 1141.09C750.886 1146.54 829.375 1191.74 888.255 1125.93C928.638 1080.78 956.597 972.045 912.298 915.337C889.244 885.827 860.387 880.91 838.419 894.708C830.532 899.66 821.248 910.483 824.536 928.632C825.913 936.206 832.398 936.453 834.626 940.303C838.052 946.244 839.806 952.582 836.905 959.717C829.186 978.728 811.107 956.538 811.107 956.538C811.107 956.538 806.325 965.835 808.237 979.123C810.154 992.412 818.327 1005.66 805.754 1021.5C796.383 1033.3 777.877 1027.21 771.8 1009.68C763.811 986.633 764.101 946.478 775.154 905.163C788.741 843.072 834.983 754.156 954.726 760.302C1231.1 774.481 1242 1242.45 1242 1242.45L1017.88 1242.06C1034.67 1205.26 1048.61 1161.84 1052.21 1119.33C1061.98 1003.96 1031.52 967.453 1031.52 967.453C1031.52 967.453 1024.54 952.645 1019.33 955.739C1015.33 958.113 1021.62 972.37 1021.62 972.37C1021.62 972.37 1041.67 1010.02 1031.34 1103.09C1026 1151.21 987.524 1210.51 961.186 1242.28L896.596 1242.56C903.555 1236.5 910.065 1228.77 915.704 1222.49C953.075 1180.89 968.599 1138.34 968.599 1138.34C968.599 1138.34 973.004 1127.94 968.451 1123.12C964.163 1118.57 956.592 1129.26 956.592 1129.26C956.592 1129.26 934.231 1170.73 886.985 1203.75C833.259 1241.3 758.814 1242.16 742 1241.84V1141.09Z" fill="#5BD6BF"/>
<path d="M614.379 427.254C620.064 427.254 624.672 433.556 624.672 441.33C624.672 449.103 620.064 455.405 614.379 455.405C608.694 455.405 604.085 449.103 604.085 441.33C604.085 433.556 608.694 427.254 614.379 427.254Z" fill="#5BD6BF"/>
<path d="M616.953 370.102C624.412 370.102 630.459 378.371 630.459 388.57C630.459 398.769 624.412 407.037 616.953 407.037C609.494 407.037 603.448 398.769 603.448 388.57C603.448 378.371 609.494 370.102 616.953 370.102Z" fill="#5BD6BF"/>
<path d="M713 313.94C704.114 308.558 625.625 263.955 566.745 328.901C526.362 373.449 498.403 480.753 542.702 536.713C565.756 565.833 594.613 570.685 616.581 557.07C624.468 552.183 633.752 541.503 630.464 523.593C629.087 516.12 622.602 515.876 620.374 512.076C616.948 506.213 615.194 499.96 618.095 492.919C625.814 474.158 643.893 496.056 643.893 496.056C643.893 496.056 648.675 486.881 646.763 473.768C644.846 460.655 636.673 447.583 649.246 431.946C658.616 420.304 677.123 426.32 683.2 443.609C691.189 466.357 690.899 505.983 679.846 546.752C666.259 608.024 620.017 695.767 500.274 689.702C223.895 675.71 213 213.914 213 213.914L437.121 214.304C420.327 250.612 406.394 293.458 402.794 335.413C393.016 449.263 423.478 485.285 423.478 485.285C423.478 485.285 430.463 499.897 435.668 496.843C439.675 494.501 433.384 480.433 433.384 480.433C433.384 480.433 413.327 443.282 423.662 351.44C429.005 303.95 467.476 245.432 493.814 214.081L558.404 213.81C551.445 219.784 544.935 227.411 539.296 233.608C501.925 274.663 486.401 316.652 486.401 316.652C486.401 316.652 481.996 326.914 486.549 331.669C490.837 336.158 498.408 325.611 498.408 325.611C498.408 325.611 520.769 284.688 568.015 252.104C621.741 215.05 696.186 214.2 713 214.514V313.94Z" fill="#5BD6BF"/>
<path d="M840.621 427.254C834.936 427.254 830.328 433.556 830.328 441.33C830.328 449.103 834.936 455.405 840.621 455.405C846.306 455.405 850.915 449.103 850.915 441.33C850.915 433.556 846.306 427.254 840.621 427.254Z" fill="#5BD6BF"/>
<path d="M838.047 370.102C830.588 370.102 824.541 378.371 824.541 388.57C824.541 398.769 830.588 407.037 838.047 407.037C845.506 407.037 851.552 398.769 851.552 388.57C851.552 378.371 845.506 370.102 838.047 370.102Z" fill="#5BD6BF"/>
<path d="M742 313.94C750.886 308.558 829.375 263.955 888.255 328.901C928.638 373.449 956.597 480.753 912.298 536.713C889.244 565.833 860.387 570.685 838.419 557.07C830.532 552.183 821.248 541.503 824.536 523.593C825.913 516.12 832.398 515.876 834.626 512.076C838.052 506.213 839.806 499.96 836.905 492.919C829.186 474.158 811.107 496.056 811.107 496.056C811.107 496.056 806.325 486.881 808.237 473.768C810.154 460.655 818.327 447.583 805.754 431.946C796.383 420.304 777.877 426.32 771.8 443.609C763.811 466.357 764.101 505.983 775.154 546.752C788.741 608.024 834.983 695.767 954.726 689.702C1231.1 675.71 1242 213.914 1242 213.914L1017.88 214.304C1034.67 250.612 1048.61 293.458 1052.21 335.413C1061.98 449.263 1031.52 485.285 1031.52 485.285C1031.52 485.285 1024.54 499.897 1019.33 496.843C1015.33 494.501 1021.62 480.433 1021.62 480.433C1021.62 480.433 1041.67 443.282 1031.34 351.44C1026 303.95 987.524 245.432 961.186 214.081L896.596 213.81C903.555 219.784 910.065 227.411 915.704 233.608C953.075 274.663 968.599 316.652 968.599 316.652C968.599 316.652 973.004 326.914 968.451 331.669C964.163 336.158 956.592 325.611 956.592 325.611C956.592 325.611 934.231 284.688 886.985 252.104C833.259 215.05 758.814 214.2 742 214.514V313.94Z" fill="#5BD6BF"/>
<path d="M747.73 753.78L750.34 756.17C750.34 756.17 742.55 761.97 738.95 762.83C735.35 763.69 734.11 761.7 733.35 759.99C733.34 759.97 733.33 759.96 733.33 759.94C733.33 759.93 733.32 759.92 733.31 759.92V725.72H738.06C740.42 725.72 742.34 723.8 742.34 721.44C742.34 719.08 740.42 717.16 738.06 717.16H733.31V712.89C739.44 711.11 743.93 705.45 743.93 698.75C743.93 690.6 737.33 684 729.19 684C721.05 684 714.45 690.6 714.45 698.74C714.45 705.45 718.94 711.1 725.07 712.88V717.15H720.32C717.96 717.15 716.04 719.07 716.04 721.43C716.04 723.79 717.96 725.71 720.32 725.71H725.07V759.91C725.07 759.92 725.06 759.92 725.05 759.93C725.04 759.95 725.03 759.96 725.03 759.98C724.27 761.69 723.03 763.68 719.43 762.82C715.83 761.96 708.04 756.16 708.04 756.16L710.65 753.77L698 745.76L702.62 760.56L704.64 758.93C704.64 758.93 712.79 766.6 716.84 768.41C718.32 769.07 724.18 773.97 729.9 773.98C734.85 773.99 739.71 769.23 741.55 768.41C745.6 766.6 753.75 758.93 753.75 758.93L755.77 760.56L760.39 745.76L747.73 753.78ZM718.1 698.74C718.1 692.61 723.07 687.65 729.19 687.65C735.31 687.65 740.28 692.62 740.28 698.74C740.28 703.41 737.39 707.39 733.31 709.03V704.12C733.31 701.84 731.47 700 729.19 700C726.91 700 725.07 701.84 725.07 704.12V709.03C720.99 707.39 718.1 703.41 718.1 698.74Z" fill="#5BD6BF"/>
<path d="M1025.58 841.305C1025.58 835.62 1019.19 831.012 1011.31 831.012C1003.43 831.012 997.048 835.62 997.048 841.305C997.048 846.99 1003.43 851.599 1011.31 851.599C1019.19 851.599 1025.58 846.99 1025.58 841.305Z" fill="#5BD6BF" fill-opacity="0.5"/>
<path d="M1083.49 838.731C1083.49 831.272 1075.11 825.225 1064.78 825.225C1054.44 825.225 1046.06 831.272 1046.06 838.731C1046.06 846.189 1054.44 852.236 1064.78 852.236C1075.11 852.236 1083.49 846.189 1083.49 838.731Z" fill="#5BD6BF" fill-opacity="0.5"/>
<path d="M1140.4 742.684C1145.86 751.57 1191.06 830.058 1125.24 888.939C1080.1 929.322 971.361 957.281 914.653 912.982C885.144 889.928 880.227 861.071 894.024 839.103C898.976 831.216 909.799 821.932 927.948 825.22C935.522 826.597 935.769 833.082 939.619 835.31C945.561 838.736 951.898 840.49 959.033 837.589C978.044 829.87 955.854 811.791 955.854 811.791C955.854 811.791 965.151 807.009 978.44 808.921C991.728 810.838 1004.98 819.01 1020.82 806.438C1032.62 797.067 1026.52 778.561 1009 772.483C985.949 764.494 945.794 764.785 904.48 775.838C842.388 789.425 753.472 835.666 759.618 955.41C773.797 1231.79 1241.77 1242.68 1241.77 1242.68L1241.37 1018.56C1204.58 1035.36 1161.16 1049.29 1118.65 1052.89C1003.27 1062.67 966.769 1032.21 966.769 1032.21C966.769 1032.21 951.961 1025.22 955.056 1020.02C957.429 1016.01 971.686 1022.3 971.686 1022.3C971.686 1022.3 1009.33 1042.36 1102.4 1032.02C1150.53 1026.68 1209.83 988.208 1241.6 961.87L1241.87 897.279C1235.82 904.239 1228.09 910.749 1221.81 916.388C1180.21 953.758 1137.66 969.283 1137.66 969.283C1137.66 969.283 1127.26 973.688 1122.44 969.135C1117.89 964.847 1128.58 957.276 1128.58 957.276C1128.58 957.276 1170.05 934.915 1203.07 887.669C1240.62 833.943 1241.48 759.498 1241.16 742.684H1140.4Z" fill="#5BD6BF" fill-opacity="0.5"/>
<path d="M1025.58 615.062C1025.58 620.747 1019.19 625.356 1011.31 625.356C1003.43 625.356 997.048 620.747 997.048 615.062C997.048 609.378 1003.43 604.769 1011.31 604.769C1019.19 604.769 1025.58 609.378 1025.58 615.062Z" fill="#5BD6BF" fill-opacity="0.5"/>
<path d="M1083.49 617.637C1083.49 625.096 1075.11 631.142 1064.78 631.142C1054.44 631.142 1046.06 625.096 1046.06 617.637C1046.06 610.178 1054.44 604.132 1064.78 604.132C1075.11 604.132 1083.49 610.178 1083.49 617.637Z" fill="#5BD6BF" fill-opacity="0.5"/>
<path d="M1140.4 713.684C1145.86 704.798 1191.06 626.309 1125.24 567.429C1080.1 527.045 971.361 499.086 914.653 543.385C885.144 566.44 880.227 595.296 894.024 617.265C898.976 625.152 909.799 634.436 927.948 631.148C935.522 629.771 935.769 623.286 939.619 621.058C945.561 617.632 951.898 615.878 959.033 618.779C978.044 626.498 955.854 644.576 955.854 644.576C955.854 644.576 965.151 649.359 978.44 647.447C991.728 645.53 1004.98 637.357 1020.82 649.93C1032.62 659.3 1026.52 677.807 1009 683.884C985.949 691.873 945.794 691.583 904.48 680.53C842.388 666.943 753.472 620.701 759.618 500.957C773.797 224.579 1241.77 213.684 1241.77 213.684L1241.37 437.805C1204.58 421.011 1161.16 407.077 1118.65 403.478C1003.27 393.7 966.769 424.162 966.769 424.162C966.769 424.162 951.961 431.147 955.056 436.352C957.429 440.359 971.686 434.068 971.686 434.068C971.686 434.068 1009.33 414.011 1102.4 424.345C1150.53 429.688 1209.83 468.16 1241.6 494.498L1241.87 559.088C1235.82 552.129 1228.09 545.619 1221.81 539.98C1180.21 502.609 1137.66 487.085 1137.66 487.085C1137.66 487.085 1127.26 482.68 1122.44 487.233C1117.89 491.521 1128.58 499.091 1128.58 499.091C1128.58 499.091 1170.05 521.453 1203.07 568.699C1240.62 622.424 1241.48 696.87 1241.16 713.684H1140.4Z" fill="#5BD6BF" fill-opacity="0.5"/>
<path d="M426.571 841.305C426.571 835.62 432.872 831.012 440.646 831.012C448.42 831.012 454.721 835.62 454.721 841.305C454.721 846.99 448.42 851.599 440.646 851.599C432.872 851.599 426.571 846.99 426.571 841.305Z" fill="#5BD6BF" fill-opacity="0.5"/>
<path d="M369.419 838.731C369.419 831.272 377.687 825.225 387.886 825.225C398.085 825.225 406.353 831.272 406.353 838.731C406.353 846.189 398.085 852.236 387.886 852.236C377.687 852.236 369.419 846.189 369.419 838.731Z" fill="#5BD6BF" fill-opacity="0.5"/>
<path d="M313.257 742.684C307.875 751.57 263.271 830.058 328.217 888.939C372.765 929.322 480.069 957.281 536.029 912.982C565.149 889.928 570.001 861.071 556.386 839.103C551.499 831.216 540.819 821.932 522.909 825.22C515.436 826.597 515.192 833.082 511.392 835.31C505.529 838.736 499.276 840.49 492.235 837.589C473.474 829.87 495.372 811.791 495.372 811.791C495.372 811.791 486.197 807.009 473.084 808.921C459.971 810.838 446.899 819.01 431.262 806.438C419.62 797.067 425.636 778.561 442.926 772.483C465.673 764.494 505.299 764.785 546.068 775.838C607.34 789.425 695.083 835.666 689.018 955.41C675.026 1231.79 213.23 1242.68 213.23 1242.68L213.621 1018.56C249.928 1035.36 292.775 1049.29 334.729 1052.89C448.579 1062.67 484.601 1032.21 484.601 1032.21C484.601 1032.21 499.213 1025.22 496.16 1020.02C493.817 1016.01 479.749 1022.3 479.749 1022.3C479.749 1022.3 442.598 1042.36 350.756 1032.02C303.267 1026.68 244.748 988.208 213.398 961.87L213.126 897.279C219.1 904.239 226.727 910.749 232.925 916.388C273.98 953.758 315.968 969.283 315.968 969.283C315.968 969.283 326.23 973.688 330.985 969.135C335.475 964.847 324.927 957.276 324.927 957.276C324.927 957.276 284.004 934.915 251.42 887.669C214.367 833.943 213.516 759.498 213.83 742.684H313.257Z" fill="#5BD6BF" fill-opacity="0.5"/>
<path d="M426.571 615.062C426.571 620.747 432.872 625.356 440.646 625.356C448.42 625.356 454.721 620.747 454.721 615.062C454.721 609.378 448.42 604.769 440.646 604.769C432.872 604.769 426.571 609.378 426.571 615.062Z" fill="#5BD6BF" fill-opacity="0.5"/>
<path d="M369.419 617.637C369.419 625.096 377.687 631.142 387.886 631.142C398.085 631.142 406.353 625.096 406.353 617.637C406.353 610.178 398.085 604.132 387.886 604.132C377.687 604.132 369.419 610.178 369.419 617.637Z" fill="#5BD6BF" fill-opacity="0.5"/>
<path d="M313.257 713.684C307.875 704.798 263.271 626.309 328.217 567.429C372.765 527.045 480.069 499.086 536.029 543.385C565.149 566.44 570.001 595.296 556.386 617.265C551.499 625.152 540.819 634.436 522.909 631.148C515.436 629.771 515.192 623.286 511.392 621.058C505.529 617.632 499.276 615.878 492.235 618.779C473.474 626.498 495.372 644.576 495.372 644.576C495.372 644.576 486.197 649.359 473.084 647.447C459.971 645.53 446.899 637.357 431.262 649.93C419.62 659.3 425.636 677.807 442.926 683.884C465.673 691.873 505.299 691.583 546.068 680.53C607.34 666.943 695.083 620.701 689.018 500.957C675.026 224.579 213.23 213.684 213.23 213.684L213.621 437.805C249.928 421.011 292.775 407.077 334.729 403.478C448.579 393.7 484.601 424.162 484.601 424.162C484.601 424.162 499.213 431.147 496.16 436.352C493.817 440.359 479.749 434.068 479.749 434.068C479.749 434.068 442.598 414.011 350.756 424.345C303.267 429.688 244.748 468.16 213.398 494.498L213.126 559.088C219.1 552.129 226.727 545.619 232.925 539.98C273.98 502.609 315.968 487.085 315.968 487.085C315.968 487.085 326.23 482.68 330.985 487.233C335.475 491.521 324.927 499.091 324.927 499.091C324.927 499.091 284.004 521.453 251.42 568.699C214.367 622.424 213.516 696.87 213.83 713.684H313.257Z" fill="#5BD6BF" fill-opacity="0.5"/>
<path d="M436.739 858.966C440.759 862.986 448.533 861.728 454.104 856.158C459.674 850.588 460.931 842.814 456.911 838.794C452.891 834.774 445.116 836.031 439.546 841.6C433.976 847.171 432.719 854.946 436.739 858.966Z" fill="#5BD6BF"/>
<path d="M397.607 901.739C402.881 907.013 413.081 905.365 420.39 898.056C427.698 890.747 429.346 880.547 424.072 875.273C418.798 869.999 408.599 871.648 401.29 878.956C393.981 886.265 392.332 896.464 397.607 901.739Z" fill="#5BD6BF"/>
<path d="M425.278 1009.9C415.139 1007.47 327.677 983.932 332.581 895.759C335.947 835.283 393.067 738.623 464.49 729.849C501.658 725.284 525.54 742.212 531.317 767.502C533.392 776.581 532.304 790.798 517.146 801.307C510.816 805.689 506.056 801.278 501.758 802.425C495.135 804.203 489.413 807.444 486.419 814.541C478.435 833.442 506.909 830.535 506.909 830.535C506.909 830.535 503.716 840.49 492.968 848.534C482.216 856.576 467.071 860.163 464.756 880.258C463.039 895.226 480.436 904.002 497.123 895.91C519.072 885.259 547.261 856.66 568.659 819.63C602.957 766.118 633.132 670.546 544.115 590.221C338.659 404.818 0.051335 728.018 0.051335 728.018L158.805 886.22C172.948 848.326 193.799 807.771 221.316 775.163C295.983 686.668 343.334 682.396 343.334 682.396C343.334 682.396 358.744 676.864 360.237 682.733C361.391 687.245 346.862 692.878 346.862 692.878C346.862 692.878 306.059 705.316 247.556 778.434C217.305 816.242 202.576 885.377 198.737 926.463L244.211 972.333C243.575 963.127 244.438 953.058 244.891 944.63C247.881 888.79 266.992 847.725 266.992 847.725C266.992 847.725 271.23 837.257 277.857 837.069C284.106 836.884 281.901 849.796 281.901 849.796C281.901 849.796 268.389 894.931 278.448 951.688C289.888 1016.23 341.92 1069.48 354.036 1081.14L425.278 1009.9Z" fill="#5BD6BF"/>
<path d="M596.716 1018.94C592.697 1014.92 593.954 1007.15 599.524 1001.58C605.094 996.009 612.868 994.751 616.888 998.771C620.908 1002.79 619.651 1010.57 614.082 1016.14C608.511 1021.71 600.736 1022.96 596.716 1018.94Z" fill="#5BD6BF"/>
<path d="M553.944 1058.08C548.669 1052.8 550.318 1042.6 557.626 1035.29C564.935 1027.98 575.135 1026.34 580.409 1031.61C585.683 1036.88 584.035 1047.08 576.726 1054.39C569.417 1061.7 559.218 1063.35 553.944 1058.08Z" fill="#5BD6BF"/>
<path d="M445.785 1030.4C448.211 1040.54 471.75 1128 559.923 1123.1C620.399 1119.74 717.059 1062.62 725.833 991.192C730.399 954.024 713.47 930.142 688.18 924.365C679.102 922.29 664.884 923.378 654.375 938.536C649.993 944.866 654.404 949.626 653.257 953.924C651.479 960.547 648.238 966.269 641.141 969.263C622.24 977.248 625.147 948.773 625.147 948.773C625.147 948.773 615.192 951.966 607.148 962.714C599.106 973.466 595.519 988.612 575.424 990.926C560.455 992.642 551.68 975.246 559.772 958.56C570.423 936.61 599.022 908.421 636.052 887.023C689.565 852.725 785.136 822.55 865.461 911.567C1050.86 1117.02 727.664 1455.63 727.664 1455.63L569.462 1296.88C607.356 1282.73 647.911 1261.88 680.519 1234.37C769.014 1159.7 773.286 1112.35 773.286 1112.35C773.286 1112.35 778.818 1096.94 772.949 1095.45C768.437 1094.29 762.805 1108.82 762.805 1108.82C762.805 1108.82 750.367 1149.62 677.248 1208.13C639.441 1238.38 570.305 1253.11 529.219 1256.95L483.349 1211.47C492.555 1212.11 502.624 1211.24 511.052 1210.79C566.892 1207.8 607.957 1188.69 607.957 1188.69C607.957 1188.69 618.425 1184.45 618.613 1177.83C618.798 1171.58 605.886 1173.78 605.886 1173.78C605.886 1173.78 560.751 1187.29 503.994 1177.23C439.454 1165.79 386.205 1113.76 374.542 1101.65L445.785 1030.4Z" fill="#5BD6BF"/>
<path d="M860.3 435.405C864.32 439.425 863.122 447.14 857.625 452.637C852.128 458.133 844.414 459.331 840.394 455.311C836.374 451.291 837.571 443.576 843.068 438.079C848.565 432.582 856.28 431.385 860.3 435.405Z" fill="#5BD6BF"/>
<path d="M902.532 396.813C907.807 402.087 906.236 412.21 899.024 419.422C891.812 426.634 881.69 428.204 876.415 422.93C871.141 417.655 872.712 407.534 879.924 400.322C887.136 393.11 897.258 391.538 902.532 396.813Z" fill="#5BD6BF"/>
<path d="M1010.16 425.016C1007.68 414.927 983.722 327.888 896.163 332.177C836.108 335.122 740.463 391.227 732.217 462.121C727.928 499.014 744.902 522.85 770.063 528.756C779.096 530.877 793.212 529.89 803.552 514.901C807.862 508.643 803.449 503.885 804.561 499.622C806.284 493.054 809.465 487.392 816.495 484.465C835.219 476.657 832.519 504.925 832.519 504.925C832.519 504.925 842.388 501.819 850.308 491.194C858.225 480.567 861.689 465.544 881.637 463.378C896.494 461.771 905.327 479.111 897.399 495.634C886.963 517.368 858.738 545.183 822.094 566.195C769.161 599.914 674.419 629.259 594.037 540.299C408.501 334.976 727.336 0.733248 727.336 0.733248L885.537 159.487C847.989 173.285 807.84 193.73 775.628 220.851C688.21 294.441 684.278 341.452 684.278 341.452C684.278 341.452 678.885 356.723 684.725 358.244C689.215 359.422 694.714 345.026 694.714 345.026C694.714 345.026 706.801 304.573 779.051 246.939C816.409 217.137 884.991 202.962 925.783 199.417L971.647 244.897C962.502 244.201 952.506 244.99 944.136 245.385C888.681 247.99 848.013 266.704 848.013 266.704C848.013 266.704 837.642 270.845 837.499 277.427C837.357 283.633 850.168 281.529 850.168 281.529C850.168 281.529 894.917 268.404 951.365 278.771C1015.56 290.56 1068.8 342.599 1080.47 354.711L1010.16 425.016Z" fill="#5BD6BF"/>
<path d="M1020.28 595.382C1016.26 591.362 1008.54 592.56 1003.05 598.057C997.549 603.554 996.351 611.268 1000.37 615.288C1004.39 619.308 1012.11 618.111 1017.6 612.615C1023.1 607.118 1024.3 599.402 1020.28 595.382Z" fill="#5BD6BF"/>
<path d="M1058.87 553.15C1053.6 547.875 1043.47 549.447 1036.26 556.658C1029.05 563.87 1027.48 573.992 1032.75 579.267C1038.03 584.541 1048.15 582.97 1055.36 575.758C1062.57 568.546 1064.14 558.424 1058.87 553.15Z" fill="#5BD6BF"/>
<path d="M1030.67 445.522C1040.76 448 1127.79 471.961 1123.51 559.519C1120.56 619.574 1064.45 715.219 993.561 723.465C956.668 727.754 932.833 710.78 926.926 685.619C924.805 676.587 925.792 662.47 940.781 652.131C947.039 647.82 951.797 652.233 956.06 651.121C962.628 649.398 968.29 646.217 971.217 639.187C979.025 620.463 950.757 623.163 950.757 623.163C950.757 623.163 953.863 613.294 964.488 605.374C975.115 597.457 990.138 593.993 992.305 574.045C993.91 559.187 976.571 550.355 960.048 558.283C938.314 568.72 910.499 596.944 889.487 633.588C855.769 686.521 826.423 781.263 915.383 861.646C1120.7 1047.18 1454.95 728.346 1454.95 728.346L1296.2 570.145C1282.4 607.693 1261.95 647.842 1234.83 680.054C1161.24 767.472 1114.23 771.404 1114.23 771.404C1114.23 771.404 1098.96 776.797 1097.44 770.957C1096.26 766.468 1110.66 760.968 1110.66 760.968C1110.66 760.968 1151.11 748.881 1208.74 676.631C1238.54 639.273 1252.72 570.691 1256.27 529.899L1210.79 484.035C1211.48 493.18 1210.69 503.176 1210.3 511.546C1207.69 567.002 1188.98 607.669 1188.98 607.669C1188.98 607.669 1184.84 618.04 1178.26 618.183C1172.05 618.325 1174.15 605.514 1174.15 605.514C1174.15 605.514 1187.28 560.765 1176.91 504.317C1165.12 440.126 1113.08 386.884 1100.97 375.217L1030.67 445.522Z" fill="#5BD6BF"/>
<path d="M723.704 760.587L723.86 764.123C723.86 764.123 714.25 762.716 711.097 760.778C707.943 758.841 708.473 756.557 709.145 754.81C709.152 754.789 709.152 754.775 709.166 754.761C709.173 754.754 709.173 754.739 709.166 754.732L733.349 730.549L736.708 733.908C738.377 735.577 741.092 735.577 742.761 733.908C744.43 732.239 744.43 729.524 742.761 727.855L739.402 724.497L742.421 721.477C748.015 724.553 755.192 723.726 759.929 718.988C765.692 713.225 765.692 703.891 759.937 698.136C754.181 692.38 744.847 692.38 739.091 698.136C734.346 702.88 733.526 710.05 736.602 715.644L733.583 718.663L730.224 715.304C728.555 713.635 725.84 713.635 724.171 715.304C722.502 716.973 722.502 719.688 724.171 721.357L727.53 724.716L703.347 748.899C703.34 748.906 703.333 748.899 703.318 748.899C703.297 748.906 703.283 748.906 703.269 748.92C701.522 749.592 699.238 750.122 697.301 746.968C695.363 743.815 693.956 734.205 693.956 734.205L697.492 734.361L694.211 719.752L687.013 733.484L689.594 733.76C689.594 733.76 689.933 744.946 691.517 749.09C692.097 750.603 692.776 758.211 696.813 762.263C700.306 765.77 707.109 765.841 708.99 766.562C713.133 768.146 724.32 768.486 724.32 768.486L724.595 771.067L738.327 763.868L723.704 760.587ZM741.672 700.717C746.007 696.382 753.028 696.389 757.356 700.717C761.683 705.044 761.683 712.073 757.356 716.4C754.053 719.702 749.196 720.473 745.151 718.748L748.623 715.276C750.235 713.664 750.235 711.062 748.623 709.449C747.011 707.837 744.408 707.837 742.796 709.449L739.324 712.921C737.599 708.877 738.37 704.019 741.672 700.717Z" fill="#5BD6BF"/>
<path d="M858.281 1018.94C862.301 1014.92 861.044 1007.15 855.474 1001.58C849.903 996.009 842.129 994.751 838.109 998.771C834.089 1002.79 835.346 1010.57 840.917 1016.14C846.486 1021.71 854.261 1022.96 858.281 1018.94Z" fill="#5BD6BF" fill-opacity="0.5"/>
<path d="M901.054 1058.08C906.328 1052.8 904.68 1042.6 897.371 1035.29C890.063 1027.98 879.863 1026.34 874.588 1031.61C869.315 1036.88 870.963 1047.08 878.271 1054.39C885.58 1061.7 895.78 1063.35 901.054 1058.08Z" fill="#5BD6BF" fill-opacity="0.5"/>
<path d="M1009.21 1030.4C1006.79 1040.54 983.248 1128 895.075 1123.1C834.598 1119.74 737.938 1062.62 729.164 991.193C724.6 954.025 741.528 930.143 766.817 924.365C775.896 922.29 790.114 923.378 800.622 938.536C805.004 944.866 800.593 949.626 801.74 953.924C803.519 960.548 806.76 966.269 813.856 969.263C832.757 977.248 829.85 948.773 829.85 948.773C829.85 948.773 839.806 951.966 847.85 962.714C855.891 973.466 859.48 988.612 879.574 990.927C894.543 992.643 903.317 975.246 895.226 958.559C884.575 936.609 855.975 908.421 818.946 887.024C765.433 852.725 669.862 822.55 589.536 911.567C404.132 1117.02 727.339 1455.63 727.339 1455.63L885.531 1296.87C847.641 1282.73 807.086 1261.88 774.478 1234.37C685.983 1159.7 681.711 1112.35 681.711 1112.35C681.711 1112.35 676.18 1096.94 682.049 1095.45C686.56 1094.29 692.193 1108.82 692.193 1108.82C692.193 1108.82 704.631 1149.62 777.75 1208.13C815.557 1238.38 884.692 1253.11 925.781 1256.95L971.645 1211.47C962.446 1212.11 952.376 1211.25 943.948 1210.79C888.106 1207.8 847.04 1188.69 847.04 1188.69C847.04 1188.69 836.572 1184.45 836.385 1177.83C836.199 1171.58 849.111 1173.78 849.111 1173.78C849.111 1173.78 894.246 1187.29 951.003 1177.23C1015.55 1165.8 1068.8 1113.76 1080.46 1101.65L1009.21 1030.4Z" fill="#5BD6BF" fill-opacity="0.5"/>
<path d="M1018.26 858.965C1014.24 862.985 1006.46 861.728 1000.89 856.158C995.324 850.588 994.067 842.813 998.087 838.793C1002.11 834.774 1009.88 836.031 1015.45 841.601C1021.02 847.171 1022.28 854.946 1018.26 858.965Z" fill="#5BD6BF" fill-opacity="0.5"/>
<path d="M1057.39 901.739C1052.12 907.013 1041.92 905.364 1034.61 898.055C1027.3 890.747 1025.65 880.547 1030.93 875.273C1036.2 869.999 1046.4 871.648 1053.71 878.956C1061.02 886.265 1062.67 896.464 1057.39 901.739Z" fill="#5BD6BF" fill-opacity="0.5"/>
<path d="M1029.72 1009.9C1039.86 1007.47 1127.32 983.932 1122.42 895.76C1119.05 835.283 1061.93 738.622 990.508 729.848C953.34 725.284 929.459 742.212 923.68 767.502C921.605 776.581 922.693 790.798 937.852 801.307C944.181 805.689 948.941 801.278 953.239 802.425C959.863 804.204 965.584 807.444 968.578 814.541C976.563 833.442 948.089 830.534 948.089 830.534C948.089 830.534 951.281 840.49 962.03 848.535C972.781 856.576 987.928 860.164 990.242 880.259C991.959 895.227 974.561 904.002 957.875 895.91C935.925 885.259 907.737 856.66 886.339 819.631C852.041 766.118 821.866 670.546 910.883 590.221C1116.34 404.818 1454.95 728.021 1454.95 728.021L1296.19 886.215C1282.05 848.326 1261.2 807.77 1233.68 775.163C1159.01 686.668 1111.66 682.396 1111.66 682.396C1111.66 682.396 1096.25 676.864 1094.76 682.733C1093.61 687.245 1108.14 692.878 1108.14 692.878C1108.14 692.878 1148.94 705.316 1207.44 778.434C1237.69 816.241 1252.42 885.377 1256.26 926.466L1210.78 972.329C1211.42 963.13 1210.56 953.061 1210.11 944.633C1207.12 888.79 1188.01 847.725 1188.01 847.725C1188.01 847.725 1183.77 837.257 1177.14 837.069C1170.89 836.884 1173.1 849.795 1173.1 849.795C1173.1 849.795 1186.61 894.931 1176.55 951.688C1165.11 1016.23 1113.08 1069.48 1100.96 1081.14L1029.72 1009.9Z" fill="#5BD6BF" fill-opacity="0.5"/>
<path d="M434.721 595.383C438.741 591.363 446.455 592.56 451.952 598.057C457.449 603.554 458.646 611.268 454.626 615.288C450.606 619.308 442.892 618.112 437.395 612.615C431.898 607.118 430.701 599.403 434.721 595.383Z" fill="#5BD6BF" fill-opacity="0.5"/>
<path d="M396.129 553.15C401.403 547.876 411.525 549.447 418.737 556.658C425.949 563.87 427.519 573.992 422.245 579.267C416.971 584.54 406.849 582.97 399.637 575.758C392.426 568.546 390.855 558.424 396.129 553.15Z" fill="#5BD6BF" fill-opacity="0.5"/>
<path d="M424.332 445.522C414.242 448 327.204 471.96 331.492 559.519C334.437 619.574 390.543 715.219 461.436 723.465C498.329 727.754 522.165 710.78 528.071 685.619C530.193 676.587 529.205 662.47 514.216 652.13C507.958 647.82 503.2 652.233 498.938 651.121C492.369 649.398 486.708 646.217 483.78 639.187C475.972 620.463 504.24 623.163 504.24 623.163C504.24 623.163 501.134 613.294 490.51 605.374C479.882 597.457 464.86 593.992 462.693 574.045C461.087 559.187 478.427 550.355 494.95 558.283C516.684 568.719 544.498 596.944 565.51 633.588C599.229 686.521 628.575 781.262 539.615 861.646C334.291 1047.18 0.0514315 728.343 0.0514315 728.343L158.802 570.145C172.6 607.693 193.045 647.842 220.166 680.054C293.756 767.472 340.767 771.404 340.767 771.404C340.767 771.404 356.039 776.797 357.56 770.958C358.737 766.468 344.341 760.968 344.341 760.968C344.341 760.968 303.889 748.881 246.255 676.631C216.453 639.273 202.277 570.691 198.732 529.899L244.213 484.034C243.516 493.18 244.306 503.176 244.701 511.546C247.306 567.001 266.019 607.669 266.019 607.669C266.019 607.669 270.16 618.04 276.742 618.183C282.949 618.326 280.844 605.514 280.844 605.514C280.844 605.514 267.719 560.766 278.086 504.317C289.876 440.126 341.915 386.884 354.026 375.217L424.332 445.522Z" fill="#5BD6BF" fill-opacity="0.5"/>
<path d="M594.699 435.405C590.679 439.425 591.876 447.14 597.373 452.637C602.87 458.134 610.584 459.33 614.604 455.31C618.623 451.291 617.427 443.576 611.93 438.079C606.433 432.582 598.718 431.386 594.699 435.405Z" fill="#5BD6BF" fill-opacity="0.5"/>
<path d="M552.466 396.813C547.191 402.088 548.763 412.209 555.974 419.421C563.186 426.633 573.308 428.204 578.582 422.93C583.856 417.655 582.285 407.534 575.073 400.322C567.862 393.11 557.74 391.539 552.466 396.813Z" fill="#5BD6BF" fill-opacity="0.5"/>
<path d="M444.838 425.016C447.315 414.927 471.276 327.888 558.834 332.177C618.89 335.121 714.535 391.227 722.781 462.12C727.069 499.014 710.096 522.849 684.934 528.756C675.902 530.877 661.785 529.89 651.446 514.901C647.135 508.643 651.548 503.885 650.437 499.622C648.714 493.054 645.532 487.392 638.502 484.465C619.778 476.657 622.479 504.924 622.479 504.924C622.479 504.924 612.609 501.819 604.689 491.194C596.772 480.567 593.308 465.544 573.361 463.378C558.503 461.771 549.671 479.111 557.599 495.634C568.035 517.368 596.26 545.183 632.903 566.195C685.837 599.914 780.578 629.259 860.962 540.299C1046.5 334.976 727.662 0.733226 727.662 0.733226L569.46 159.487C607.008 173.285 647.158 193.729 679.37 220.851C766.788 294.441 770.719 341.452 770.719 341.452C770.719 341.452 776.112 356.723 770.273 358.245C765.783 359.422 760.284 345.026 760.284 345.026C760.284 345.026 748.196 304.573 675.947 246.939C638.589 217.136 570.006 202.962 529.214 199.417L483.35 244.897C492.495 244.201 502.492 244.99 510.861 245.385C566.317 247.99 606.984 266.704 606.984 266.704C606.984 266.704 617.356 270.845 617.498 277.427C617.641 283.634 604.83 281.528 604.83 281.528C604.83 281.528 560.081 268.404 503.632 278.771C439.442 290.56 386.2 342.6 374.532 354.711L444.838 425.016Z" fill="#5BD6BF" fill-opacity="0.5"/>
<path d="M858.284 1018.94C862.304 1014.92 861.046 1007.15 855.476 1001.58C849.906 996.008 842.132 994.751 838.112 998.771C834.092 1002.79 835.349 1010.57 840.919 1016.14C846.489 1021.71 854.264 1022.96 858.284 1018.94Z" fill="#5BD6BF"/>
<path d="M901.057 1058.08C906.331 1052.8 904.683 1042.6 897.374 1035.29C890.065 1027.98 879.865 1026.34 874.591 1031.61C869.317 1036.88 870.966 1047.08 878.274 1054.39C885.583 1061.7 895.782 1063.35 901.057 1058.08Z" fill="#5BD6BF"/>
<path d="M1009.22 1030.4C1006.79 1040.54 983.25 1128 895.077 1123.1C834.601 1119.74 737.941 1062.62 729.167 991.192C724.602 954.024 741.53 930.142 766.82 924.365C775.899 922.29 790.116 923.378 800.625 938.536C805.007 944.866 800.596 949.626 801.743 953.924C803.521 960.547 806.762 966.269 813.859 969.263C832.76 977.248 829.853 948.773 829.853 948.773C829.853 948.773 839.808 951.966 847.852 962.714C855.894 973.466 859.481 988.611 879.576 990.926C894.544 992.643 903.32 975.246 895.228 958.559C884.577 936.61 855.978 908.421 818.948 887.023C765.436 852.725 669.864 822.55 589.539 911.567C404.136 1117.02 727.336 1455.63 727.336 1455.63L885.538 1296.88C847.644 1282.73 807.089 1261.88 774.481 1234.37C685.986 1159.7 681.714 1112.35 681.714 1112.35C681.714 1112.35 676.183 1096.94 682.051 1095.45C686.563 1094.29 692.196 1108.82 692.196 1108.82C692.196 1108.82 704.634 1149.62 777.752 1208.13C815.56 1238.38 884.695 1253.11 925.781 1256.95L971.651 1211.47C962.445 1212.11 952.376 1211.24 943.948 1210.79C888.108 1207.8 847.043 1188.69 847.043 1188.69C847.043 1188.69 836.575 1184.45 836.387 1177.83C836.202 1171.58 849.114 1173.78 849.114 1173.78C849.114 1173.78 894.249 1187.29 951.006 1177.23C1015.55 1165.79 1068.79 1113.76 1080.46 1101.65L1009.22 1030.4Z" fill="#5BD6BF"/>
<path d="M1018.26 858.966C1014.24 862.985 1006.47 861.728 1000.9 856.158C995.327 850.588 994.069 842.814 998.089 838.794C1002.11 834.774 1009.88 836.031 1015.45 841.6C1021.02 847.171 1022.28 854.946 1018.26 858.966Z" fill="#5BD6BF"/>
<path d="M1057.39 901.738C1052.12 907.013 1041.92 905.365 1034.61 898.056C1027.3 890.747 1025.65 880.547 1030.93 875.273C1036.2 869.999 1046.4 871.648 1053.71 878.956C1061.02 886.265 1062.67 896.464 1057.39 901.738Z" fill="#5BD6BF"/>
<path d="M1029.72 1009.9C1039.86 1007.47 1127.32 983.932 1122.42 895.759C1119.05 835.283 1061.93 738.623 990.51 729.849C953.342 725.283 929.46 742.212 923.683 767.502C921.608 776.581 922.696 790.798 937.854 801.307C944.184 805.689 948.944 801.278 953.242 802.425C959.865 804.203 965.587 807.444 968.581 814.541C976.566 833.442 948.091 830.535 948.091 830.535C948.091 830.535 951.284 840.49 962.032 848.534C972.784 856.576 987.93 860.163 990.244 880.258C991.96 895.227 974.564 904.002 957.878 895.91C935.928 885.259 907.739 856.66 886.341 819.63C852.043 766.118 821.868 670.546 910.885 590.221C1116.34 404.821 1454.95 728.018 1454.95 728.018L1296.2 886.22C1282.05 848.326 1261.2 807.771 1233.68 775.163C1159.02 686.668 1111.67 682.396 1111.67 682.396C1111.67 682.396 1096.26 676.864 1094.76 682.733C1093.61 687.245 1108.14 692.877 1108.14 692.877C1108.14 692.877 1148.94 705.315 1207.44 778.434C1237.7 816.241 1252.42 885.377 1256.26 926.463L1210.79 972.333C1211.42 963.127 1210.56 953.058 1210.11 944.63C1207.12 888.79 1188.01 847.725 1188.01 847.725C1188.01 847.725 1183.77 837.257 1177.14 837.069C1170.89 836.884 1173.1 849.796 1173.1 849.796C1173.1 849.796 1186.61 894.931 1176.55 951.688C1165.11 1016.23 1113.08 1069.48 1100.96 1081.14L1029.72 1009.9Z" fill="#5BD6BF"/>
<path d="M434.723 595.382C438.743 591.362 446.458 592.56 451.955 598.057C457.451 603.554 458.649 611.268 454.629 615.288C450.609 619.308 442.894 618.111 437.397 612.615C431.9 607.117 430.703 599.402 434.723 595.382Z" fill="#5BD6BF"/>
<path d="M396.131 553.15C401.405 547.875 411.528 549.447 418.74 556.658C425.952 563.87 427.522 573.992 422.248 579.267C416.973 584.541 406.852 582.97 399.64 575.758C392.428 568.546 390.856 558.424 396.131 553.15Z" fill="#5BD6BF"/>
<path d="M424.334 445.522C414.245 448 327.206 471.96 331.495 559.519C334.44 619.574 390.545 715.219 461.439 723.465C498.332 727.754 522.168 710.78 528.074 685.619C530.195 676.586 529.208 662.47 514.219 652.13C507.961 647.82 503.203 652.233 498.94 651.121C492.372 649.398 486.71 646.217 483.783 639.187C475.975 620.463 504.243 623.163 504.243 623.163C504.243 623.163 501.137 613.294 490.512 605.374C479.885 597.457 464.862 593.993 462.696 574.045C461.089 559.188 478.429 550.355 494.952 558.283C516.686 568.719 544.501 596.944 565.513 633.588C599.232 686.521 628.577 781.263 539.617 861.646C334.294 1047.18 0.0512909 728.346 0.0512909 728.346L158.805 570.145C172.603 607.693 193.048 647.842 220.169 680.054C293.759 767.472 340.77 771.404 340.77 771.404C340.77 771.404 356.041 776.797 357.562 770.957C358.74 766.467 344.344 760.968 344.344 760.968C344.344 760.968 303.891 748.881 246.257 676.631C216.455 639.273 202.28 570.691 198.735 529.899L244.215 484.035C243.519 493.18 244.308 503.176 244.703 511.546C247.308 567.001 266.022 607.669 266.022 607.669C266.022 607.669 270.163 618.04 276.745 618.183C282.951 618.325 280.847 605.514 280.847 605.514C280.847 605.514 267.722 560.765 278.089 504.317C289.878 440.126 341.918 386.884 354.029 375.217L424.334 445.522Z" fill="#5BD6BF"/>
<path d="M594.7 435.405C590.681 439.425 591.878 447.139 597.375 452.637C602.872 458.133 610.586 459.331 614.606 455.311C618.626 451.291 617.429 443.576 611.933 438.079C606.436 432.582 598.72 431.385 594.7 435.405Z" fill="#5BD6BF"/>
<path d="M552.468 396.813C547.193 402.087 548.765 412.21 555.976 419.422C563.188 426.633 573.31 428.204 578.585 422.93C583.859 417.655 582.288 407.534 575.076 400.322C567.864 393.11 557.742 391.538 552.468 396.813Z" fill="#5BD6BF"/>
<path d="M444.84 425.016C447.318 414.927 471.279 327.887 558.837 332.177C618.892 335.122 714.537 391.227 722.783 462.121C727.072 499.014 710.098 522.849 684.937 528.756C675.905 530.877 661.788 529.89 651.449 514.901C647.138 508.643 651.551 503.885 650.44 499.622C648.716 493.054 645.535 487.392 638.505 484.465C619.781 476.657 622.481 504.925 622.481 504.925C622.481 504.925 612.612 501.819 604.692 491.194C596.775 480.567 593.311 465.544 573.364 463.377C558.505 461.772 549.673 479.111 557.601 495.634C568.038 517.368 596.262 545.183 632.906 566.195C685.839 599.913 780.581 629.259 860.964 540.299C1046.5 334.98 727.664 0.733175 727.664 0.733175L569.463 159.487C607.011 173.285 647.16 193.73 679.372 220.85C766.79 294.441 770.722 341.452 770.722 341.452C770.722 341.452 776.115 356.723 770.275 358.244C765.786 359.422 760.286 345.025 760.286 345.025C760.286 345.025 748.199 304.573 675.949 246.939C638.591 217.137 570.009 202.961 529.217 199.417L483.353 244.897C492.498 244.201 502.494 244.99 510.864 245.385C566.32 247.99 606.987 266.704 606.987 266.704C606.987 266.704 617.358 270.845 617.501 277.427C617.643 283.633 604.832 281.529 604.832 281.529C604.832 281.529 560.084 268.404 503.635 278.771C439.444 290.56 386.202 342.599 374.535 354.711L444.84 425.016Z" fill="#5BD6BF"/>
<path d="M759.905 731.978L763.441 731.822C763.441 731.822 762.034 741.432 760.096 744.585C758.159 747.739 755.875 747.209 754.128 746.537C754.107 746.53 754.093 746.53 754.079 746.516C754.072 746.509 754.058 746.509 754.05 746.516L729.867 722.333L733.226 718.974C734.895 717.305 734.895 714.59 733.226 712.921C731.557 711.252 728.842 711.252 727.173 712.921L723.815 716.28L720.795 713.261C723.871 707.667 723.044 700.49 718.306 695.753C712.543 689.99 703.21 689.99 697.454 695.745C691.698 701.501 691.698 710.835 697.454 716.591C702.198 721.336 709.368 722.156 714.962 719.08L717.981 722.099L714.622 725.458C712.953 727.127 712.953 729.842 714.622 731.511C716.291 733.18 719.006 733.18 720.675 731.511L724.034 728.152L748.217 752.335C748.224 752.342 748.217 752.349 748.217 752.364C748.224 752.385 748.224 752.399 748.238 752.413C748.91 754.16 749.44 756.444 746.286 758.381C743.133 760.319 733.523 761.726 733.523 761.726L733.679 758.19L719.07 761.471L732.802 768.669L733.078 766.089C733.078 766.089 744.264 765.749 748.408 764.165C749.921 763.585 757.529 762.906 761.581 758.869C765.088 755.376 765.159 748.573 765.88 746.693C767.464 742.549 767.804 731.362 767.804 731.362L770.385 731.087L763.186 717.355L759.905 731.978ZM700.035 714.01C695.7 709.676 695.707 702.654 700.035 698.326C704.362 693.999 711.391 693.999 715.718 698.326C719.02 701.629 719.791 706.486 718.066 710.531L714.594 707.059C712.982 705.447 710.38 705.447 708.767 707.059C707.155 708.671 707.155 711.274 708.767 712.886L712.239 716.358C708.195 718.083 703.337 717.312 700.035 714.01Z" fill="#5BD6BF"/>
<path d="M1018.26 597.401C1014.24 593.381 1006.47 594.638 1000.9 600.208C995.327 605.779 994.069 613.553 998.089 617.573C1002.11 621.593 1009.88 620.336 1015.45 614.766C1021.02 609.196 1022.28 601.421 1018.26 597.401Z" fill="#5BD6BF" fill-opacity="0.5"/>
<path d="M1057.39 554.628C1052.12 549.354 1041.92 551.002 1034.61 558.311C1027.3 565.62 1025.65 575.82 1030.93 581.094C1036.2 586.367 1046.4 584.719 1053.71 577.411C1061.02 570.102 1062.67 559.902 1057.39 554.628Z" fill="#5BD6BF" fill-opacity="0.5"/>
<path d="M1029.72 446.469C1039.86 448.896 1127.32 472.434 1122.42 560.607C1119.05 621.084 1061.93 717.744 990.51 726.518C953.343 731.082 929.461 714.154 923.683 688.865C921.608 679.786 922.696 665.568 937.854 655.06C944.184 650.678 948.944 655.089 953.242 653.942C959.866 652.163 965.587 648.922 968.581 641.826C976.566 622.925 948.091 625.832 948.091 625.832C948.091 625.832 951.284 615.876 962.033 607.832C972.784 599.791 987.93 596.203 990.245 576.108C991.961 561.139 974.564 552.365 957.877 560.456C935.927 571.107 907.739 599.707 886.342 636.736C852.043 690.249 821.868 785.82 910.885 866.146C1116.34 1051.55 1454.95 728.343 1454.95 728.343L1296.19 570.151C1282.05 608.041 1261.2 648.596 1233.68 681.204C1159.02 769.699 1111.67 773.971 1111.67 773.971C1111.67 773.971 1096.26 779.502 1094.76 773.633C1093.61 769.122 1108.14 763.489 1108.14 763.489C1108.14 763.489 1148.94 751.051 1207.44 677.932C1237.7 640.125 1252.42 570.99 1256.27 529.901L1210.78 484.037C1211.43 493.237 1210.57 503.306 1210.11 511.734C1207.12 567.576 1188.01 608.642 1188.01 608.642C1188.01 608.642 1183.77 619.11 1177.14 619.297C1170.89 619.483 1173.1 606.571 1173.1 606.571C1173.1 606.571 1186.61 561.436 1176.55 504.679C1165.12 440.136 1113.08 386.887 1100.97 375.224L1029.72 446.469Z" fill="#5BD6BF" fill-opacity="0.5"/>
<path d="M858.283 437.423C862.303 441.443 861.046 449.218 855.476 454.788C849.906 460.358 842.131 461.615 838.111 457.595C834.092 453.576 835.349 445.801 840.919 440.23C846.489 434.66 854.264 433.404 858.283 437.423Z" fill="#5BD6BF" fill-opacity="0.5"/>
<path d="M901.057 398.291C906.331 403.565 904.682 413.765 897.373 421.073C890.065 428.382 879.865 430.031 874.591 424.757C869.317 419.482 870.966 409.283 878.274 401.974C885.583 394.666 895.782 393.017 901.057 398.291Z" fill="#5BD6BF" fill-opacity="0.5"/>
<path d="M1009.22 425.963C1006.79 415.823 983.25 328.362 895.078 333.265C834.601 336.631 737.941 393.751 729.166 465.174C724.602 502.342 741.53 526.223 766.82 532.002C775.899 534.077 790.116 532.989 800.625 517.83C805.007 511.501 800.596 506.741 801.743 502.443C803.522 495.819 806.762 490.098 813.859 487.104C832.76 479.119 829.852 507.593 829.852 507.593C829.852 507.593 839.808 504.401 847.853 493.652C855.894 482.901 859.482 467.754 879.577 465.44C894.545 463.723 903.32 481.121 895.228 497.807C884.577 519.757 855.978 547.945 818.949 569.343C765.436 603.641 669.864 633.816 589.539 544.799C404.136 339.344 727.339 0.732971 727.339 0.732971L885.533 159.493C847.644 173.633 807.088 194.482 774.481 222C685.986 296.667 681.714 344.019 681.714 344.019C681.714 344.019 676.182 359.429 682.051 360.921C686.563 362.076 692.196 347.546 692.196 347.546C692.196 347.546 704.634 306.743 777.752 248.24C815.559 217.989 884.695 203.261 925.784 199.419L971.647 244.9C962.448 244.257 952.379 245.12 943.951 245.573C888.108 248.566 847.043 267.677 847.043 267.677C847.043 267.677 836.575 271.915 836.387 278.541C836.202 284.791 849.113 282.585 849.113 282.585C849.113 282.585 894.249 269.074 951.006 279.133C1015.55 290.569 1068.8 342.602 1080.46 354.718L1009.22 425.963Z" fill="#5BD6BF" fill-opacity="0.5"/>
<path d="M594.701 1020.96C590.681 1016.94 591.878 1009.23 597.375 1003.73C602.872 998.233 610.586 997.036 614.606 1001.06C618.626 1005.08 617.43 1012.79 611.933 1018.29C606.436 1023.78 598.721 1024.98 594.701 1020.96Z" fill="#5BD6BF" fill-opacity="0.5"/>
<path d="M552.469 1059.55C547.194 1054.28 548.765 1044.16 555.976 1036.95C563.188 1029.73 573.31 1028.16 578.585 1033.44C583.858 1038.71 582.288 1048.83 575.076 1056.04C567.864 1063.26 557.742 1064.83 552.469 1059.55Z" fill="#5BD6BF" fill-opacity="0.5"/>
<path d="M444.84 1031.35C447.318 1041.44 471.278 1128.48 558.837 1124.19C618.892 1121.24 714.537 1065.14 722.783 994.246C727.072 957.353 710.098 933.517 684.937 927.611C675.905 925.489 661.788 926.477 651.449 941.466C647.138 947.724 651.551 952.482 650.44 956.744C648.716 963.313 645.535 968.974 638.505 971.902C619.781 979.71 622.481 951.442 622.481 951.442C622.481 951.442 612.612 954.548 604.692 965.172C596.775 975.8 593.31 990.822 573.363 992.989C558.505 994.595 549.673 977.255 557.601 960.732C568.037 938.998 596.262 911.184 632.906 890.172C685.839 856.453 780.58 827.107 860.964 916.067C1046.5 1121.39 727.661 1455.63 727.661 1455.63L569.463 1296.88C607.011 1283.08 647.16 1262.64 679.372 1235.52C766.79 1161.93 770.722 1114.91 770.722 1114.91C770.722 1114.91 776.115 1099.64 770.276 1098.12C765.786 1096.95 760.286 1111.34 760.286 1111.34C760.286 1111.34 748.199 1151.79 675.949 1209.43C638.591 1239.23 570.009 1253.41 529.217 1256.95L483.352 1211.47C492.498 1212.17 502.494 1211.38 510.864 1210.98C566.319 1208.38 606.987 1189.66 606.987 1189.66C606.987 1189.66 617.358 1185.52 617.501 1178.94C617.644 1172.73 604.832 1174.84 604.832 1174.84C604.832 1174.84 560.084 1187.96 503.635 1177.6C439.444 1165.81 386.202 1113.77 374.535 1101.66L444.84 1031.35Z" fill="#5BD6BF" fill-opacity="0.5"/>
<path d="M434.723 860.983C438.743 865.003 446.458 863.806 451.955 858.309C457.452 852.812 458.648 845.098 454.628 841.078C450.609 837.059 442.895 838.255 437.397 843.752C431.9 849.249 430.704 856.964 434.723 860.983Z" fill="#5BD6BF" fill-opacity="0.5"/>
<path d="M396.131 903.216C401.406 908.491 411.527 906.919 418.739 899.708C425.951 892.496 427.522 882.374 422.248 877.1C416.973 871.826 406.852 873.397 399.64 880.609C392.428 887.82 390.857 897.942 396.131 903.216Z" fill="#5BD6BF" fill-opacity="0.5"/>
<path d="M424.334 1010.84C414.245 1008.37 327.206 984.406 331.495 896.848C334.439 836.792 390.545 741.147 461.438 732.901C498.332 728.613 522.167 745.586 528.074 770.748C530.195 779.78 529.208 793.897 514.219 804.236C507.961 808.547 503.203 804.134 498.94 805.245C492.372 806.968 486.71 810.15 483.783 817.18C475.975 835.904 504.242 833.203 504.242 833.203C504.242 833.203 501.137 843.073 490.512 850.993C479.885 858.91 464.862 862.374 462.696 882.321C461.089 897.179 478.429 906.011 494.952 898.083C516.686 887.647 544.501 859.422 565.513 822.779C599.232 769.845 628.577 675.104 539.617 594.72C334.294 409.185 0.0512695 728.02 0.0512695 728.02L158.805 886.222C172.603 848.674 193.047 808.524 220.169 776.313C293.759 688.894 340.77 684.963 340.77 684.963C340.77 684.963 356.041 679.57 357.563 685.409C358.74 689.899 344.344 695.398 344.344 695.398C344.344 695.398 303.891 707.486 246.257 779.735C216.455 817.093 202.28 885.676 198.735 926.468L244.215 972.332C243.519 963.187 244.309 953.19 244.704 944.821C247.308 889.365 266.022 848.698 266.022 848.698C266.022 848.698 270.163 838.327 276.745 838.184C282.952 838.041 280.846 850.852 280.846 850.852C280.846 850.852 267.722 895.601 278.089 952.05C289.878 1016.24 341.918 1069.48 354.029 1081.15L424.334 1010.84Z" fill="#5BD6BF" fill-opacity="0.5"/>
</svg>
